<?xml version="1.0" encoding="utf-8"?>
<!-- Generator: Adobe Illustrator 19.0.0, SVG Export Plug-In . SVG Version: 6.00 Build 0)  -->
<svg version="1.1" id="Layer_1" xmlns="http://www.w3.org/2000/svg" xmlns:xlink="http://www.w3.org/1999/xlink" x="0px" y="0px"
	 width="192.7px" height="192.7px" viewBox="0 0 192.7 192.7" style="enable-background:new 0 0 192.7 192.7;" xml:space="preserve"
	>
<style type="text/css">
	.st0{fill:url(#XMLID_71_);}
	.st1{fill:#603A17;}
	.st2{fill:none;stroke:#281A18;stroke-width:4.0721;stroke-miterlimit:10;}
	.st3{opacity:0.62;fill:#281A18;}
	.st4{fill:url(#XMLID_72_);}
	.st5{opacity:0.85;fill:#FFFFFF;}
	.st6{fill:#281A18;}
	.st7{fill:url(#XMLID_73_);}
	.st8{fill:#FED800;}
	.st9{fill:url(#XMLID_74_);}
	.st10{fill:#F2986B;}
	.st11{fill:#292929;}
	.st12{clip-path:url(#XMLID_75_);fill:#FFFFFF;}
	.st13{clip-path:url(#XMLID_75_);fill:#F16462;}
	.st14{opacity:0.46;fill:#F2986B;}
	.st15{fill:#212A31;}
	.st16{fill:#412312;}
	.st17{fill:#6D451E;}
	.st18{fill:url(#XMLID_76_);}
	.st19{fill:#AD8B66;}
	.st20{fill:none;stroke:url(#XMLID_77_);stroke-width:11.1231;stroke-linejoin:round;}
	.st21{fill:none;stroke:url(#XMLID_78_);stroke-width:11.1231;stroke-linejoin:round;}
	.st22{fill:none;stroke:url(#XMLID_79_);stroke-width:11.1231;stroke-linejoin:round;}
	.st23{fill:none;stroke:url(#XMLID_80_);stroke-width:11.1231;stroke-linejoin:round;}
	.st24{fill:none;stroke:url(#XMLID_81_);stroke-width:11.1231;stroke-linejoin:round;}
	.st25{fill:none;stroke:url(#XMLID_82_);stroke-width:11.1231;stroke-linejoin:round;}
	.st26{fill:url(#XMLID_83_);}
	.st27{fill:url(#XMLID_84_);}
	.st28{fill:url(#XMLID_85_);}
	.st29{fill:url(#XMLID_86_);}
	.st30{fill:url(#XMLID_87_);}
	.st31{fill:url(#XMLID_88_);}
	.st32{fill:#6D451C;}
	.st33{font-family:'Exo-BoldItalic';}
	.st34{font-size:33.3896px;}
	.st35{fill:none;stroke:#3D332A;stroke-width:10.1962;stroke-linejoin:round;}
	.st36{fill:url(#XMLID_108_);}
	.st37{fill:url(#XMLID_109_);}
	.st38{fill:url(#XMLID_110_);}
	.st39{fill:url(#XMLID_111_);}
	.st40{fill:url(#XMLID_112_);}
	.st41{fill:url(#XMLID_113_);}
	.st42{fill:#3D332A;}
	.st43{fill:#FFFFFF;}
	.st44{fill:#F79421;}
	.st45{font-size:22.9775px;}
	.st46{fill:#4EBA6E;}
	.st47{fill:#B52A2A;}
</style>
<linearGradient id="XMLID_71_" gradientUnits="userSpaceOnUse" x1="96.3676" y1="192.7352" x2="96.3676" y2="-4.325557e-009">
	<stop  offset="0" style="stop-color:#FAEEAA"/>
	<stop  offset="1" style="stop-color:#A4D3D1"/>
</linearGradient>
<rect id="XMLID_92_" class="st0" width="192.7" height="192.7"/>
<g id="XMLID_486_">
	<g id="XMLID_3389_">
		<g id="XMLID_3423_">
			<g id="XMLID_263_">
				<g id="XMLID_268_">
					<path id="XMLID_278_" class="st1" d="M175.7,168.2c-0.2,0.6-0.5,1.2-0.7,1.8c-0.9,2.3-4.3,2.7-7.6,0.8
						c-17.2-9.8-33.3-19.9-48.5-30.2c-2.9-2-4.1-5.6-2.6-8c0.4-0.6,0.8-1.2,1.1-1.9c1.5-2.5,5-2.8,7.8-0.8
						c14.5,10.4,30,20.7,46.5,30.7C174.8,162.4,176.6,165.8,175.7,168.2z"/>
					<path id="XMLID_277_" class="st2" d="M170.4,159.6c-5.1,11.5-19.5,14.2-33.2,6.3c-13.7-7.9-19.3-23.9-11.6-36"/>
					<path id="XMLID_276_" class="st3" d="M136.8,137.8c-2.1,3.6-4,7.2-5.9,10.7c-0.6-0.4-1.2-0.8-1.8-1.2c1.9-3.5,3.8-7.1,6-10.7
						C135.6,137,136.2,137.4,136.8,137.8z"/>
					<path id="XMLID_275_" class="st3" d="M141.2,140.8c-2,3.6-3.9,7.1-5.7,10.7c-0.6-0.4-1.2-0.8-1.9-1.2c1.8-3.5,3.7-7.1,5.8-10.7
						C140,140,140.6,140.4,141.2,140.8z"/>
					<path id="XMLID_274_" class="st3" d="M145.6,143.8c-1.9,3.6-3.8,7.1-5.5,10.6c-0.6-0.4-1.3-0.8-1.9-1.2
						c1.7-3.5,3.6-7.1,5.6-10.6C144.4,143,145,143.4,145.6,143.8z"/>
					<path id="XMLID_273_" class="st3" d="M150.1,146.8c-1.9,3.5-3.6,7.1-5.3,10.6c-0.6-0.4-1.3-0.8-1.9-1.2c1.7-3.5,3.5-7,5.4-10.6
						C148.9,146,149.5,146.4,150.1,146.8z"/>
					<path id="XMLID_272_" class="st3" d="M154.7,149.7c-1.8,3.5-3.5,7-5.1,10.5c-0.6-0.4-1.3-0.8-1.9-1.2c1.6-3.5,3.3-7,5.2-10.5
						C153.5,148.9,154.1,149.3,154.7,149.7z"/>
					<path id="XMLID_271_" class="st3" d="M159.3,152.7c-1.7,3.5-3.4,7-4.9,10.5c-0.7-0.4-1.3-0.8-1.9-1.2c1.5-3.5,3.2-7,5-10.5
						C158.1,151.9,158.7,152.3,159.3,152.7z"/>
					<path id="XMLID_270_" class="st3" d="M164,155.6c-1.7,3.5-3.2,7-4.7,10.4c-0.7-0.4-1.3-0.8-2-1.2c1.5-3.4,3.1-6.9,4.8-10.4
						C162.7,154.8,163.4,155.2,164,155.6z"/>
					<path id="XMLID_269_" class="st3" d="M168.7,158.6c-1.6,3.5-3.1,6.9-4.5,10.3c-0.7-0.4-1.3-0.8-2-1.2c1.4-3.4,2.9-6.9,4.6-10.4
						C167.4,157.8,168.1,158.2,168.7,158.6z"/>
				</g>
				<g id="XMLID_265_">
					<linearGradient id="XMLID_72_" gradientUnits="userSpaceOnUse" x1="67.7856" y1="138.9396" x2="67.7856" y2="28.6752">
						<stop  offset="0" style="stop-color:#676767"/>
						<stop  offset="1" style="stop-color:#C3C2C2"/>
					</linearGradient>
					<path id="XMLID_267_" class="st4" d="M125.5,130c-3.7,3-7.2,6-10.7,9C61.4,104.2,24.9,65.3,10.1,28.7c13,2.8,26,5.7,39.1,8.5
						C62.6,74.2,92.8,109.9,125.5,130z"/>
					<path id="XMLID_266_" class="st5" d="M119.5,139.1c-0.7,0.6-1.4,1.2-2,1.7C62.9,105.6,25.7,66,10.5,28.8
						c1.6,0.4,3.3,0.7,4.9,1.1C30.5,66.2,66.7,104.7,119.5,139.1z"/>
				</g>
				<path id="XMLID_264_" class="st6" d="M136.1,125.4c-7.7,11.8-14.1,23.5-19.2,34.9c-4-2.4-8-4.9-11.9-7.4
					c5.7-11.5,12.6-23.3,20.9-35.2C129.2,120.3,132.6,122.9,136.1,125.4z"/>
			</g>
		</g>
		<g id="XMLID_3390_">
			<g id="XMLID_248_">
				<g id="XMLID_253_">
					<path id="XMLID_279_" class="st1" d="M16.3,168.2c0.2,0.6,0.5,1.2,0.7,1.8c0.9,2.3,4.3,2.7,7.6,0.8
						c17.2-9.8,33.3-19.9,48.5-30.2c2.9-2,4.1-5.6,2.6-8c-0.4-0.6-0.8-1.2-1.1-1.9c-1.5-2.5-5-2.8-7.8-0.8
						c-14.5,10.4-30,20.7-46.5,30.7C17.2,162.4,15.4,165.8,16.3,168.2z"/>
					<path id="XMLID_262_" class="st2" d="M21.6,159.6c5.1,11.5,19.5,14.2,33.2,6.3c13.7-7.9,19.3-23.9,11.6-36"/>
					<path id="XMLID_261_" class="st3" d="M55.2,137.8c2.1,3.6,4,7.2,5.9,10.7c0.6-0.4,1.2-0.8,1.8-1.2c-1.9-3.5-3.8-7.1-6-10.7
						C56.4,137,55.8,137.4,55.2,137.8z"/>
					<path id="XMLID_260_" class="st3" d="M50.8,140.8c2,3.6,3.9,7.1,5.7,10.7c0.6-0.4,1.2-0.8,1.9-1.2c-1.8-3.5-3.7-7.1-5.8-10.7
						C52,140,51.4,140.4,50.8,140.8z"/>
					<path id="XMLID_259_" class="st3" d="M46.4,143.8c1.9,3.6,3.8,7.1,5.5,10.6c0.6-0.4,1.3-0.8,1.9-1.2c-1.7-3.5-3.6-7.1-5.6-10.6
						C47.6,143,47,143.4,46.4,143.8z"/>
					<path id="XMLID_258_" class="st3" d="M41.9,146.8c1.9,3.5,3.6,7.1,5.3,10.6c0.6-0.4,1.3-0.8,1.9-1.2c-1.7-3.5-3.5-7-5.4-10.6
						C43.1,146,42.5,146.4,41.9,146.8z"/>
					<path id="XMLID_257_" class="st3" d="M37.3,149.7c1.8,3.5,3.5,7,5.1,10.5c0.6-0.4,1.3-0.8,1.9-1.2c-1.6-3.5-3.3-7-5.2-10.5
						C38.5,148.9,37.9,149.3,37.3,149.7z"/>
					<path id="XMLID_256_" class="st3" d="M32.7,152.7c1.7,3.5,3.4,7,4.9,10.5c0.7-0.4,1.3-0.8,1.9-1.2c-1.5-3.5-3.2-7-5-10.5
						C33.9,151.9,33.3,152.3,32.7,152.7z"/>
					<path id="XMLID_255_" class="st3" d="M28,155.6c1.7,3.5,3.2,7,4.7,10.4c0.7-0.4,1.3-0.8,2-1.2c-1.5-3.4-3.1-6.9-4.8-10.4
						C29.3,154.8,28.6,155.2,28,155.6z"/>
					<path id="XMLID_254_" class="st3" d="M23.3,158.6c1.6,3.5,3.1,6.9,4.5,10.3c0.7-0.4,1.3-0.8,2-1.2c-1.4-3.4-2.9-6.9-4.6-10.4
						C24.6,157.8,23.9,158.2,23.3,158.6z"/>
				</g>
				<g id="XMLID_250_">
					<linearGradient id="XMLID_73_" gradientUnits="userSpaceOnUse" x1="124.2145" y1="138.9396" x2="124.2145" y2="28.6752">
						<stop  offset="0" style="stop-color:#676767"/>
						<stop  offset="1" style="stop-color:#C3C2C2"/>
					</linearGradient>
					<path id="XMLID_252_" class="st7" d="M66.5,130c3.7,3,7.2,6,10.7,9c53.4-34.7,89.8-73.6,104.7-110.3c-13,2.8-26,5.7-39.1,8.5
						C129.4,74.2,99.2,109.9,66.5,130z"/>
					<path id="XMLID_251_" class="st5" d="M72.5,139.1c0.7,0.6,1.4,1.2,2,1.7c54.6-35.3,91.8-74.9,107-112.1
						c-1.6,0.4-3.3,0.7-4.9,1.1C161.5,66.2,125.3,104.7,72.5,139.1z"/>
				</g>
				<path id="XMLID_249_" class="st6" d="M55.9,125.4c7.7,11.8,14.1,23.5,19.2,34.9c4-2.4,8-4.9,11.9-7.4
					c-5.7-11.5-12.6-23.3-20.9-35.2C62.8,120.3,59.4,122.9,55.9,125.4z"/>
			</g>
		</g>
	</g>
	<g id="XMLID_3386_">
		<polygon id="XMLID_3388_" class="st8" points="42.4,24.5 45.2,40.6 58.9,43.9 45.2,47.1 42.4,63.2 39.7,47.1 26,43.9 39.7,40.6 		
			"/>
		<polygon id="XMLID_3387_" class="st8" points="143.6,26.6 145.3,36.6 153.7,38.6 145.3,40.6 143.6,50.5 141.9,40.6 133.4,38.6 
			141.9,36.6 		"/>
	</g>
	<g id="XMLID_1915_">
		<linearGradient id="XMLID_74_" gradientUnits="userSpaceOnUse" x1="98.024" y1="160.3174" x2="98.024" y2="52.8768">
			<stop  offset="0" style="stop-color:#F2986B"/>
			<stop  offset="3.732866e-002" style="stop-color:#F29B6D"/>
			<stop  offset="0.4612" style="stop-color:#F8BB87"/>
			<stop  offset="0.7967" style="stop-color:#FDCF99"/>
			<stop  offset="1" style="stop-color:#FFD6A0"/>
		</linearGradient>
		<path id="XMLID_3385_" class="st9" d="M36.9,115.5c0.8-35.4,28.8-63.4,62.6-62.6S160,83,159.1,118.3c-1,44.2-33.1,42.9-64.2,41.5
			C65,158.4,35.9,158.3,36.9,115.5z"/>
		<g id="XMLID_3378_">
			<g id="XMLID_99_">
				<path id="XMLID_103_" class="st10" d="M128.8,69.6c0.3,0.2,0.6,0.4,0.9,0.6c0.6,0.4,1.5,0.1,1.9-0.5c0.4-0.7,0.1-1.5-0.5-1.9
					c-0.3-0.2-0.6-0.4-0.9-0.6c-0.6-0.4-1.5-0.1-1.9,0.5C127.9,68.4,128.2,69.2,128.8,69.6L128.8,69.6z"/>
			</g>
		</g>
		<g id="XMLID_3371_">
			<g id="XMLID_93_">
				<path id="XMLID_97_" class="st10" d="M135.7,75.7c0.1,0.1,0.1,0.1,0.2,0.2c1.2,1.3,3.2-0.7,1.9-1.9c-0.1-0.1-0.1-0.1-0.2-0.2
					C136.4,72.5,134.5,74.4,135.7,75.7c0.1,0.1,0.1,0.1,0.2,0.2c1.2,1.3,3.2-0.7,1.9-1.9c-0.1-0.1-0.1-0.1-0.2-0.2
					C136.4,72.5,134.5,74.4,135.7,75.7L135.7,75.7z"/>
			</g>
		</g>
		<g id="XMLID_3364_">
			<g id="XMLID_68_">
				<path id="XMLID_91_" class="st10" d="M129.9,75.9c0.2,0.2,0.4,0.4,0.6,0.6c0.5,0.5,1.4,0.5,1.9,0c0.5-0.5,0.5-1.4,0-1.9
					c-0.2-0.2-0.4-0.4-0.6-0.6c-0.5-0.5-1.4-0.5-1.9,0C129.3,74.5,129.4,75.4,129.9,75.9L129.9,75.9z"/>
			</g>
		</g>
		<g id="XMLID_3357_">
			<g id="XMLID_62_">
				<path id="XMLID_66_" class="st10" d="M137.1,82.6C137.1,82.6,137.1,82.6,137.1,82.6c-0.2-0.2-0.5-0.4-0.8-0.6c0,0,0,0,0,0.1
					c-0.1-0.2-0.1-0.5-0.2-0.7c0-0.1,0-0.2,0-0.2c0.1-0.2,0.2-0.4,0.4-0.6c0,0,0,0,0,0c0.3-0.1,0.6-0.3,1-0.4c0,0,0,0-0.1,0
					c-0.7,0.1-1.4,0.6-1.4,1.4c0,0.7,0.6,1.5,1.4,1.4c0.8-0.1,1.4-0.5,1.5-1.3c0.1-0.7-0.3-1.5-1.1-1.6c-0.7-0.2-1.5,0.2-1.7,1
					C135.9,81.6,136.4,82.4,137.1,82.6L137.1,82.6z"/>
			</g>
		</g>
		<g id="XMLID_1951_">
			<path id="XMLID_3356_" class="st11" d="M83.6,64.6c0,2.2-1.9,3.9-4.1,3.9c-2.2-0.1-3.9-1.9-3.9-4L83.6,64.6z"/>
			<path id="XMLID_3355_" class="st11" d="M114.8,65.3c0,1.3-1.1,2.2-2.3,2.2c-1.3,0-2.3-1.1-2.2-2.3L114.8,65.3z"/>
			<g id="XMLID_1968_">
				<defs>
					<path id="XMLID_1969_" d="M86.3,79.7c0.1-6.1,5.2-10.9,11.3-10.8s10.9,5.2,10.8,11.3l-10.9-4.3L86.3,79.7z"/>
				</defs>
				<use xlink:href="#XMLID_1969_"  style="overflow:visible;fill:#292826;"/>
				<clipPath id="XMLID_75_">
					<use xlink:href="#XMLID_1969_"  style="overflow:visible;"/>
				</clipPath>
				
					<rect id="XMLID_3354_" x="86.1" y="67.2" transform="matrix(0.9997 2.282300e-002 -2.282300e-002 0.9997 1.6345 -2.2084)" class="st12" width="23" height="6.6"/>
				
					<ellipse id="XMLID_1970_" transform="matrix(0.9997 2.282300e-002 -2.282300e-002 0.9997 1.8346 -2.2016)" class="st13" cx="97.4" cy="79.3" rx="6.3" ry="4.3"/>
			</g>
			<path id="XMLID_1966_" class="st11" d="M92,82.6l5.4-3.7l5.2,3.9L92,82.6z"/>
			<g id="XMLID_1952_">
				<path id="XMLID_51_" class="st11" d="M110.3,78.3c0,0,0.3,0.4,0.5,1c0.2,0.6,0.4,1.6,0.1,2.6c-0.1,0.2-0.3,0.5-0.5,0.7
					c-0.2,0.2-0.6,0.3-0.8,0.3c-0.4,0-0.9,0-1.2-0.1c-0.4-0.1-0.6-0.3-0.7-0.5c-0.1-0.2-0.1-0.3-0.1-0.3s0.1,0.1,0.3,0.2
					c0.2,0.1,0.4,0.1,0.7,0.1c0.3,0,0.6-0.1,1-0.2c0.2-0.1,0.3-0.1,0.4-0.2c0.1-0.1,0.2-0.2,0.2-0.4c0.1-0.2,0.1-0.3,0.1-0.5
					c0-0.2,0.1-0.4,0.1-0.6c0-0.4,0-0.8,0-1.1C110.2,78.8,110.3,78.3,110.3,78.3z"/>
			</g>
		</g>
	</g>
	<path id="XMLID_1914_" class="st14" d="M58.7,65.2c0,0-1.6,4.3,3,3.3s30-7.1,38.5-8c11.1-1.2,19.3,0.1,26.9,2.1s4.4-10.5,0-11.7
		c-4.4-1.2-53.8-1.2-53.8-1.2L58.7,65.2z"/>
	<g id="XMLID_1653_">
		<g id="XMLID_54_">
			<path id="XMLID_58_" class="st15" d="M90.2,51.7c-9.1,10.5-20.8,18.6-35.2,19C53,70.8,53,74,55,74c15.2-0.4,27.7-8.8,37.5-20
				C93.9,52.4,91.6,50.2,90.2,51.7L90.2,51.7z"/>
		</g>
	</g>
	<path id="XMLID_1650_" class="st16" d="M159,121.1c-2.3,41.3-33.7,40.1-64,38.7c-28.8-1.3-56.7-1.5-58.1-39.3
		c15.2-7,36.7-11.4,60.4-11.4C121.7,109.1,143.7,113.7,159,121.1z"/>
	<g id="XMLID_810_">
		<g id="XMLID_1638_">
			<circle id="XMLID_1645_" class="st17" cx="50.1" cy="98.3" r="4.9"/>
			<circle id="XMLID_1643_" class="st17" cx="104.9" cy="102" r="4.9"/>
			<circle id="XMLID_1642_" class="st17" cx="153.4" cy="114.3" r="4.9"/>
		</g>
		<g id="XMLID_1155_">
			<g id="XMLID_1193_">
				<g id="XMLID_200_">
					<linearGradient id="XMLID_76_" gradientUnits="userSpaceOnUse" x1="33.7794" y1="108.7052" x2="65.6883" y2="108.7052">
						<stop  offset="0" style="stop-color:#676767"/>
						<stop  offset="1" style="stop-color:#C3C2C2"/>
					</linearGradient>
					<path id="XMLID_214_" class="st18" d="M33.8,87.3l18.9-3.4c5.7-1,12.7,1,13,13.1c0.4,14.6-7.2,15.5-12.4,16.2
						c-2.5,0.3-9.9,0.8-10.3,0.6l0.3,18.4l-8.6,1.5L33.8,87.3z M52.4,105.5c2.7-0.5,4.5-2.3,4.4-7.8c-0.2-5.5-2.4-6.1-4.7-5.7
						l-9.6,1.7l0.2,13.6L52.4,105.5z"/>
					<path id="XMLID_211_" class="st19" d="M76.2,96.9c6.3,0,10.5,1.9,8.6,14.1c-1.8,11.7-6.2,12.7-12.5,12.7
						c-6.2,0-10.6-1.7-8.7-13.7C65.6,97.6,70.1,96.9,76.2,96.9z M72.9,119c4,0,5.8-1.4,6.9-8.5c1.3-8.2-0.3-8.9-4.1-8.9
						c-3.9,0-5.7,0.5-7,8.9C67.5,117.7,68.5,119,72.9,119z"/>
					<path id="XMLID_209_" class="st19" d="M82.9,95.3l22.1-6.8l0.8,5.5l-8.3,2.5l3.7,25.8l-5.7,1.8l-3.7-25.8l-8.1,2.5L82.9,95.3z"
						/>
					<path id="XMLID_206_" class="st19" d="M114.7,93.4h6.5l5,29.8h-5.8l-1.2-6.6h-9.7l-3.3,6.6h-6.3L114.7,93.4z M118.6,111.6
						l-1.7-10.8l-5.2,10.8H118.6z"/>
					<path id="XMLID_204_" class="st19" d="M125.7,92.7l23.1-0.8l-0.7,5.5l-8.7,0.3l-3.2,25.8l-6,0.2l3.2-25.8l-8.4,0.3L125.7,92.7z
						"/>
					<path id="XMLID_201_" class="st19" d="M151.3,104.3c6.2-2.1,10.8-2.2,11.8,6.9c1,8.7-3.1,10.9-9.4,13
						c-6.1,2.1-10.8,2.4-11.8-6.6C141,108.4,145.2,106.4,151.3,104.3z M153.3,120.8c4-1.3,5.4-2.9,4.8-8.2c-0.7-6.2-2.4-6.1-6.2-4.8
						c-3.9,1.3-5.5,2.3-4.8,8.5C147.7,121.7,148.9,122.2,153.3,120.8z"/>
				</g>
				<g id="XMLID_183_">
					<linearGradient id="XMLID_77_" gradientUnits="userSpaceOnUse" x1="98.5441" y1="133.74" x2="98.5441" y2="83.6704">
						<stop  offset="0" style="stop-color:#603A17"/>
						<stop  offset="1" style="stop-color:#754D25"/>
					</linearGradient>
					<path id="XMLID_197_" class="st20" d="M33.8,87.3l18.9-3.4c5.7-1,12.7,1,13,13.1c0.4,14.6-7.2,15.5-12.4,16.2
						c-2.5,0.3-9.9,0.8-10.3,0.6l0.3,18.4l-8.6,1.5L33.8,87.3z M52.4,105.5c2.7-0.5,4.5-2.3,4.4-7.8c-0.2-5.5-2.4-6.1-4.7-5.7
						l-9.6,1.7l0.2,13.6L52.4,105.5z"/>
					<linearGradient id="XMLID_78_" gradientUnits="userSpaceOnUse" x1="98.5441" y1="133.74" x2="98.5441" y2="83.6704">
						<stop  offset="0" style="stop-color:#603A17"/>
						<stop  offset="1" style="stop-color:#754D25"/>
					</linearGradient>
					<path id="XMLID_194_" class="st21" d="M76.2,96.9c6.3,0,10.5,1.9,8.6,14.1c-1.8,11.7-6.2,12.7-12.5,12.7
						c-6.2,0-10.6-1.7-8.7-13.7C65.6,97.6,70.1,96.9,76.2,96.9z M72.9,119c4,0,5.8-1.4,6.9-8.5c1.3-8.2-0.3-8.9-4.1-8.9
						c-3.9,0-5.7,0.5-7,8.9C67.5,117.7,68.5,119,72.9,119z"/>
					<linearGradient id="XMLID_79_" gradientUnits="userSpaceOnUse" x1="98.5441" y1="133.74" x2="98.5441" y2="83.6704">
						<stop  offset="0" style="stop-color:#603A17"/>
						<stop  offset="1" style="stop-color:#754D25"/>
					</linearGradient>
					<path id="XMLID_192_" class="st22" d="M82.9,95.3l22.1-6.8l0.8,5.5l-8.3,2.5l3.7,25.8l-5.7,1.8l-3.7-25.8l-8.1,2.5L82.9,95.3z"
						/>
					<linearGradient id="XMLID_80_" gradientUnits="userSpaceOnUse" x1="98.5441" y1="133.74" x2="98.5441" y2="83.6704">
						<stop  offset="0" style="stop-color:#603A17"/>
						<stop  offset="1" style="stop-color:#754D25"/>
					</linearGradient>
					<path id="XMLID_189_" class="st23" d="M114.7,93.4h6.5l5,29.8h-5.8l-1.2-6.6h-9.7l-3.3,6.6h-6.3L114.7,93.4z M118.6,111.6
						l-1.7-10.8l-5.2,10.8H118.6z"/>
					<linearGradient id="XMLID_81_" gradientUnits="userSpaceOnUse" x1="98.5441" y1="133.74" x2="98.5441" y2="83.6704">
						<stop  offset="0" style="stop-color:#603A17"/>
						<stop  offset="1" style="stop-color:#754D25"/>
					</linearGradient>
					<path id="XMLID_187_" class="st24" d="M125.7,92.7l23.1-0.8l-0.7,5.5l-8.7,0.3l-3.2,25.8l-6,0.2l3.2-25.8l-8.4,0.3L125.7,92.7z
						"/>
					<linearGradient id="XMLID_82_" gradientUnits="userSpaceOnUse" x1="98.5441" y1="133.74" x2="98.5441" y2="83.6704">
						<stop  offset="0" style="stop-color:#603A17"/>
						<stop  offset="1" style="stop-color:#754D25"/>
					</linearGradient>
					<path id="XMLID_184_" class="st25" d="M151.3,104.3c6.2-2.1,10.8-2.2,11.8,6.9c1,8.7-3.1,10.9-9.4,13
						c-6.1,2.1-10.8,2.4-11.8-6.6C141,108.4,145.2,106.4,151.3,104.3z M153.3,120.8c4-1.3,5.4-2.9,4.8-8.2c-0.7-6.2-2.4-6.1-6.2-4.8
						c-3.9,1.3-5.5,2.3-4.8,8.5C147.7,121.7,148.9,122.2,153.3,120.8z"/>
				</g>
				<g id="XMLID_166_">
					<linearGradient id="XMLID_83_" gradientUnits="userSpaceOnUse" x1="98.5441" y1="133.74" x2="98.5441" y2="83.6704">
						<stop  offset="0" style="stop-color:#FBB03C"/>
						<stop  offset="1" style="stop-color:#FBC93C"/>
					</linearGradient>
					<path id="XMLID_180_" class="st26" d="M33.8,87.3l18.9-3.4c5.7-1,12.7,1,13,13.1c0.4,14.6-7.2,15.5-12.4,16.2
						c-2.5,0.3-9.9,0.8-10.3,0.6l0.3,18.4l-8.6,1.5L33.8,87.3z M52.4,105.5c2.7-0.5,4.5-2.3,4.4-7.8c-0.2-5.5-2.4-6.1-4.7-5.7
						l-9.6,1.7l0.2,13.6L52.4,105.5z"/>
					<linearGradient id="XMLID_84_" gradientUnits="userSpaceOnUse" x1="98.5441" y1="133.74" x2="98.5441" y2="83.6704">
						<stop  offset="0" style="stop-color:#FBB03C"/>
						<stop  offset="1" style="stop-color:#FBC93C"/>
					</linearGradient>
					<path id="XMLID_177_" class="st27" d="M76.2,96.9c6.3,0,10.5,1.9,8.6,14.1c-1.8,11.7-6.2,12.7-12.5,12.7
						c-6.2,0-10.6-1.7-8.7-13.7C65.6,97.6,70.1,96.9,76.2,96.9z M72.9,119c4,0,5.8-1.4,6.9-8.5c1.3-8.2-0.3-8.9-4.1-8.9
						c-3.9,0-5.7,0.5-7,8.9C67.5,117.7,68.5,119,72.9,119z"/>
					<linearGradient id="XMLID_85_" gradientUnits="userSpaceOnUse" x1="98.5441" y1="133.74" x2="98.5441" y2="83.6704">
						<stop  offset="0" style="stop-color:#FBB03C"/>
						<stop  offset="1" style="stop-color:#FBC93C"/>
					</linearGradient>
					<path id="XMLID_175_" class="st28" d="M82.9,95.3l22.1-6.8l0.8,5.5l-8.3,2.5l3.7,25.8l-5.7,1.8l-3.7-25.8l-8.1,2.5L82.9,95.3z"
						/>
					<linearGradient id="XMLID_86_" gradientUnits="userSpaceOnUse" x1="98.5441" y1="133.74" x2="98.5441" y2="83.6704">
						<stop  offset="0" style="stop-color:#FBB03C"/>
						<stop  offset="1" style="stop-color:#FBC93C"/>
					</linearGradient>
					<path id="XMLID_172_" class="st29" d="M114.7,93.4h6.5l5,29.8h-5.8l-1.2-6.6h-9.7l-3.3,6.6h-6.3L114.7,93.4z M118.6,111.6
						l-1.7-10.8l-5.2,10.8H118.6z"/>
					<linearGradient id="XMLID_87_" gradientUnits="userSpaceOnUse" x1="98.5441" y1="133.74" x2="98.5441" y2="83.6704">
						<stop  offset="0" style="stop-color:#FBB03C"/>
						<stop  offset="1" style="stop-color:#FBC93C"/>
					</linearGradient>
					<path id="XMLID_170_" class="st30" d="M125.7,92.7l23.1-0.8l-0.7,5.5l-8.7,0.3l-3.2,25.8l-6,0.2l3.2-25.8l-8.4,0.3L125.7,92.7z
						"/>
					<linearGradient id="XMLID_88_" gradientUnits="userSpaceOnUse" x1="98.5441" y1="133.74" x2="98.5441" y2="83.6704">
						<stop  offset="0" style="stop-color:#FBB03C"/>
						<stop  offset="1" style="stop-color:#FBC93C"/>
					</linearGradient>
					<path id="XMLID_167_" class="st31" d="M151.3,104.3c6.2-2.1,10.8-2.2,11.8,6.9c1,8.7-3.1,10.9-9.4,13
						c-6.1,2.1-10.8,2.4-11.8-6.6C141,108.4,145.2,106.4,151.3,104.3z M153.3,120.8c4-1.3,5.4-2.9,4.8-8.2c-0.7-6.2-2.4-6.1-6.2-4.8
						c-3.9,1.3-5.5,2.3-4.8,8.5C147.7,121.7,148.9,122.2,153.3,120.8z"/>
				</g>
			</g>
		</g>
		<g id="XMLID_811_">
			<g id="XMLID_871_">
				<path id="XMLID_49_" class="st32" d="M58.6,114.7c5.8-1.4,11.5-2.7,17.3-4.1c-3.6,1.7-7.2,3.3-10.8,5"/>
			</g>
			<g id="XMLID_868_">
				<path id="XMLID_47_" class="st32" d="M101,101.3c-4.4,3.6-8.7,7.2-13.1,10.8c3.9-1.6,7.7-3.4,11.4-5.4"/>
			</g>
			<g id="XMLID_857_">
				<path id="XMLID_45_" class="st32" d="M103.6,114.2c3.1-0.7,6.1-1.5,9.2-2.2c-3.5,1.8-7.1,3.4-10.8,4.6"/>
			</g>
			<g id="XMLID_836_">
				<path id="XMLID_43_" class="st32" d="M148.6,88.4c-5.4,3.6-10.6,7.4-15.7,11.4c5.4-1.6,10.7-3.5,15.8-5.7"/>
			</g>
			<g id="XMLID_821_">
				<path id="XMLID_41_" class="st32" d="M32.9,113.8c4.8-1.5,9.6-3.3,14.2-5.4c-4.7,2.8-9.1,6-13.3,9.4"/>
			</g>
			<g id="XMLID_812_">
				<path id="XMLID_39_" class="st32" d="M164.9,117.7c-2.4-0.2-4.8-0.4-7.3-0.6c0.6,2.2,1.6,4.3,2.9,6.2"/>
			</g>
		</g>
	</g>
	<g id="XMLID_521_">
		<g id="XMLID_707_">
			<text id="XMLID_146_" transform="matrix(1 0 0 1 47.9171 157.5361)" class="st19 st33 st34">Pirate</text>
			<text id="XMLID_145_" transform="matrix(1 0 0 1 47.9171 157.5361)" class="st35 st33 st34">Pirate</text>
			<g id="XMLID_129_">
				<linearGradient id="XMLID_108_" gradientUnits="userSpaceOnUse" x1="105.1798" y1="157.6367" x2="105.1798" y2="133.0947">
					<stop  offset="0" style="stop-color:#A67D52"/>
					<stop  offset="1" style="stop-color:#C59C6D"/>
				</linearGradient>
				<path id="XMLID_142_" class="st36" d="M63.9,133.1c1.7,0,3.1,0.5,4.3,1.6c1,0.9,1.5,2.4,1.5,4.4c0,1.8-0.3,3.6-1,5.3
					c-0.6,1.5-1.4,2.6-2.6,3.4c-0.5,0.3-1.1,0.5-1.6,0.6c-1,0.1-1.7,0.2-2.1,0.2s-0.8,0-1.3-0.1c-0.5,0-1.4-0.1-2.9-0.3
					c-1.4-0.2-2.2-0.3-2.3-0.3l-1.5,9.6h-4.7l3.9-24.4H63.9z M64.9,139.5c0-1.5-0.7-2.2-2-2.2h-5.2l-1.1,7.1h5.2
					c0.8,0,1.5-0.3,2-0.8c0.5-0.5,0.9-1.5,1.1-2.9C64.9,140.2,64.9,139.8,64.9,139.5z"/>
				<linearGradient id="XMLID_109_" gradientUnits="userSpaceOnUse" x1="105.1798" y1="157.6367" x2="105.1798" y2="133.0947">
					<stop  offset="0" style="stop-color:#A67D52"/>
					<stop  offset="1" style="stop-color:#C59C6D"/>
				</linearGradient>
				<path id="XMLID_140_" class="st37" d="M70,157.5l3.9-24.4h4.7l-3.9,24.4H70z"/>
				<linearGradient id="XMLID_110_" gradientUnits="userSpaceOnUse" x1="105.1798" y1="157.6367" x2="105.1798" y2="133.0947">
					<stop  offset="0" style="stop-color:#A67D52"/>
					<stop  offset="1" style="stop-color:#C59C6D"/>
				</linearGradient>
				<path id="XMLID_137_" class="st38" d="M92.5,133.1c2,0,3.5,0.7,4.5,2c0.8,1,1.1,2.3,1.1,4c0,1.9-0.3,3.6-0.9,5.1
					c-0.3,0.9-0.7,1.5-1,2c-0.3,0.4-0.7,0.8-1.2,1.1c-0.5,0.3-0.9,0.5-1.1,0.5c-0.3,0.1-0.6,0.1-0.9,0.2l3.5,9.6h-5.3l-2.9-9.3
					l-3.7-0.3l-1.5,9.6h-4.7l3.9-24.4H92.5z M90.2,144.2c0.9,0,1.6-0.3,2.1-0.8c0.7-0.7,1-2,1-3.9c0-0.7-0.1-1.2-0.3-1.5
					c-0.3-0.5-0.8-0.7-1.6-0.7h-5.2l-1.1,7H90.2z"/>
				<linearGradient id="XMLID_111_" gradientUnits="userSpaceOnUse" x1="105.1798" y1="157.6367" x2="105.1798" y2="133.0947">
					<stop  offset="0" style="stop-color:#A67D52"/>
					<stop  offset="1" style="stop-color:#C59C6D"/>
				</linearGradient>
				<path id="XMLID_134_" class="st39" d="M97.7,157.5l12.1-24.4h5.3l4.1,24.4h-4.8l-1-5.4h-7.9l-2.7,5.4H97.7z M107.4,148h5.6
					l-1.4-8.9L107.4,148z"/>
				<linearGradient id="XMLID_112_" gradientUnits="userSpaceOnUse" x1="105.1798" y1="157.6367" x2="105.1798" y2="133.0947">
					<stop  offset="0" style="stop-color:#A67D52"/>
					<stop  offset="1" style="stop-color:#C59C6D"/>
				</linearGradient>
				<path id="XMLID_132_" class="st40" d="M123.6,137.4l0.7-4.3h18.1l-0.7,4.3h-6.8l-3.2,20.1H127l3.2-20.1H123.6z"/>
				<linearGradient id="XMLID_113_" gradientUnits="userSpaceOnUse" x1="105.1798" y1="157.6367" x2="105.1798" y2="133.0947">
					<stop  offset="0" style="stop-color:#A67D52"/>
					<stop  offset="1" style="stop-color:#C59C6D"/>
				</linearGradient>
				<path id="XMLID_130_" class="st41" d="M146.4,134c0.6-0.3,1.2-0.6,1.7-0.7c0.6-0.1,1-0.2,1.4-0.2c0.4,0,2,0,4.7,0.1
					s4.9,0.2,6.3,0.4l-0.6,3.9h-9.3c-0.8,0-1.3,0.2-1.6,0.6c-0.2,0.3-0.3,0.7-0.4,1.3l-0.6,3.7l9.4,0.3l-0.6,3.8l-9.5,0.3l-0.6,3.9
					c-0.1,0.7,0,1.2,0.2,1.4c0.1,0.1,0.2,0.1,0.2,0.2c0,0,0.1,0.1,0.3,0.1c0.1,0,0.2,0,0.3,0.1c0.1,0,0.2,0,0.3,0c0.2,0,0.4,0,0.6,0
					h9l-0.6,3.8c-1.3,0.2-3.3,0.3-6.1,0.4c-2.8,0.1-4.4,0.2-4.7,0.2c-0.3,0-0.8-0.1-1.3-0.2c-2-0.5-3-1.8-3-3.8c0-0.4,0-0.7,0.1-1.1
					l2.3-14.5C144.4,136,145.2,134.7,146.4,134z"/>
			</g>
		</g>
		<g id="XMLID_702_">
			<path id="XMLID_37_" class="st42" d="M76.4,131.2c-0.4,2.6-1,5.2-1.5,7.7c1.6-2.1,2.8-4.5,3.8-6.9"/>
		</g>
		<g id="XMLID_694_">
			<path id="XMLID_35_" class="st42" d="M98.4,134.1C98.4,134.1,98.4,134.2,98.4,134.1c-1.6,1.2-3.1,2.3-4.7,3.4
				c2.6-0.1,5.2-0.3,7.8-0.4"/>
		</g>
		<g id="XMLID_685_">
			<path id="XMLID_28_" class="st42" d="M77.7,149.3c2-1.1,4.1-1.9,6.3-2.4c-1.9,1.2-3.7,2.5-5.5,3.9"/>
		</g>
		<g id="XMLID_663_">
			<g id="XMLID_30_">
				<path id="XMLID_34_" class="st42" d="M100.5,147.5c5.6-0.6,11.2-1.1,16.7-1.7c-0.1-1-0.3-1.9-0.4-2.9
					c-5.9,1.1-11.7,2.4-17.5,3.9c-1.8,0.5-1.1,3.3,0.8,2.8c5.8-1.5,11.6-2.8,17.5-3.9c1.6-0.3,1.3-3-0.4-2.9
					c-5.6,0.6-11.2,1.1-16.7,1.7C98.6,144.8,98.6,147.7,100.5,147.5L100.5,147.5z"/>
			</g>
		</g>
		<g id="XMLID_643_">
			<path id="XMLID_25_" class="st42" d="M135.4,139.3c-4.2,1.1-8.3,2.5-12.3,4.1c4.9-0.9,9.7-1.7,14.6-2.6"/>
		</g>
		<g id="XMLID_574_">
			<path id="XMLID_23_" class="st42" d="M135.2,147.2c5-2.8,9.9-5.7,14.9-8.5c-5.1,4-10.1,8.2-15,12.5"/>
		</g>
		<g id="XMLID_534_">
			<path id="XMLID_11_" class="st42" d="M50,146c-0.1,0.1-0.3,0.2-0.4,0.4c2.1-2,4.1-4.2,5.9-6.5c-2.1,4.8-4.1,9.7-6.2,14.5"/>
		</g>
	</g>
	<g id="XMLID_487_">
		<path id="XMLID_513_" class="st15" d="M53.1,69.2c0,0,61.2-20.9,81.6-4.8s6.5-10,6.5-10s-28.4-40.2-54-33.5S50.3,64.6,50.3,64.6
			C48.4,67.4,48.1,69.5,53.1,69.2z"/>
		<g id="XMLID_497_">
			<g id="XMLID_505_">
				<g id="XMLID_18_">
					<path id="XMLID_22_" class="st43" d="M89.7,26.6c-1.7,3.2-3.8,6.1-6.5,8.5c-0.7,0.6,0.3,1.7,1,1c2.8-2.5,5-5.5,6.8-8.8
						C91.4,26.5,90.1,25.8,89.7,26.6L89.7,26.6z"/>
				</g>
			</g>
			<g id="XMLID_498_">
				<g id="XMLID_12_">
					<path id="XMLID_16_" class="st43" d="M83.3,26.3c1.8,3.6,4.4,6.8,8,8.7c0.8,0.5,1.6-0.8,0.7-1.3c-3.3-1.8-5.7-4.8-7.4-8.2
						C84.2,24.7,82.9,25.4,83.3,26.3L83.3,26.3z"/>
				</g>
			</g>
		</g>
		<path id="XMLID_491_" class="st15" d="M142.7,52.1c0,0-3.9,2.1-2.3,5.1c1.7,3.1,5.2,5.7,5.8,5.2s3-8.9,1.6-10.9
			C146.5,49.6,142.7,52.1,142.7,52.1z"/>
		<path id="XMLID_489_" class="st15" d="M145.2,54.6c0,0,4.2-23.3,8.5-21.3c4.2,2,11.6,15.4,12.1,15.4c0.5,0-16.5,2.9-16.5,2.9
			L145.2,54.6z"/>
		<path id="XMLID_488_" class="st15" d="M145.2,54.6c0,0,16.7-4.1,18.6,1.6c1.9,5.7,1.6,14.6,1.6,14.6l-19.6-11.1L145.2,54.6z"/>
	</g>
</g>
<ellipse id="XMLID_234_" class="st43" cx="167.1" cy="83.5" rx="22.4" ry="17.3"/>
<text id="XMLID_482_" transform="matrix(1 0 0 1 148.5108 91.9131)"><tspan x="0" y="0" class="st44 st33 st45">1</tspan><tspan x="8.5" y="0" class="st46 st33 st45">2</tspan><tspan x="22" y="0" class="st47 st33 st45">3</tspan></text>
</svg>
