<?xml version="1.0" encoding="utf-8"?>
<!-- Generator: Adobe Illustrator 19.0.0, SVG Export Plug-In . SVG Version: 6.00 Build 0)  -->
<svg version="1.1" id="Layer_1" xmlns="http://www.w3.org/2000/svg" xmlns:xlink="http://www.w3.org/1999/xlink" x="0px" y="0px"
	 viewBox="0 0 320 568" enable-background="new 0 0 320 568" xml:space="preserve">
<g id="XMLID_1127_">
	<linearGradient id="XMLID_8_" gradientUnits="userSpaceOnUse" x1="159.9999" y1="319.7068" x2="159.9999" y2="-7.182280e-009">
		<stop  offset="0" style="stop-color:#FAEEAA"/>
		<stop  offset="1" style="stop-color:#A4D3D1"/>
	</linearGradient>
	<rect id="XMLID_2020_" x="0" fill="url(#XMLID_8_)" width="320" height="319.7"/>
	<linearGradient id="XMLID_9_" gradientUnits="userSpaceOnUse" x1="160" y1="568" x2="160" y2="319.6332">
		<stop  offset="0" style="stop-color:#281A18"/>
		<stop  offset="1" style="stop-color:#3D342A"/>
	</linearGradient>
	<rect id="XMLID_2657_" x="0" y="319.6" fill="url(#XMLID_9_)" width="320" height="248.4"/>
	<linearGradient id="XMLID_10_" gradientUnits="userSpaceOnUse" x1="81.8851" y1="319.6332" x2="81.8851" y2="179.6667">
		<stop  offset="0" style="stop-color:#4EBA6E"/>
		<stop  offset="1" style="stop-color:#7BC4C1"/>
	</linearGradient>
	<polyline id="XMLID_2656_" fill="url(#XMLID_10_)" points="0,179.7 34.8,215.2 40.7,307.8 76.1,293.6 163.8,319.6 0,319.6 	"/>
	<linearGradient id="XMLID_11_" gradientUnits="userSpaceOnUse" x1="238.3174" y1="319.6332" x2="238.3174" y2="179.6667">
		<stop  offset="0" style="stop-color:#4EBA6E"/>
		<stop  offset="1" style="stop-color:#7BC4C1"/>
	</linearGradient>
	<polyline id="XMLID_2655_" fill="url(#XMLID_11_)" points="320.2,179.7 285.4,215.2 279.5,307.8 244.1,293.6 156.4,319.6 
		320.2,319.6 	"/>
	<linearGradient id="XMLID_12_" gradientUnits="userSpaceOnUse" x1="160" y1="382.1337" x2="160" y2="319.6332">
		<stop  offset="0" style="stop-color:#3D342A"/>
		<stop  offset="1" style="stop-color:#52463C"/>
	</linearGradient>
	<rect id="XMLID_432_" x="0" y="319.6" fill="url(#XMLID_12_)" width="320" height="62.5"/>
	<g id="XMLID_2646_">
		<circle id="XMLID_2653_" fill="#D1C6B2" cx="16.6" cy="336" r="3.6"/>
		<circle id="XMLID_2652_" fill="#D1C6B2" cx="16.6" cy="366.6" r="3.6"/>
		<circle id="XMLID_2651_" fill="#D1C6B2" cx="302.1" cy="336" r="3.6"/>
		<circle id="XMLID_2647_" fill="#D1C6B2" cx="302.1" cy="366.6" r="3.6"/>
	</g>
</g>
</svg>
