<?xml version="1.0" encoding="utf-8"?>
<!-- Generator: Adobe Illustrator 19.0.0, SVG Export Plug-In . SVG Version: 6.00 Build 0)  -->
<svg id="svg" version="1.1" xmlns="http://www.w3.org/2000/svg" xmlns:xlink="http://www.w3.org/1999/xlink" x="0px" y="0px"
	 viewBox="0 0 246.7 141.5" enable-background="new 0 0 246.7 141.5" xml:space="preserve">
<g id="pirate">
	<g id="psword">
		<g id="XMLID_4409_">
			<g id="XMLID_227_">
				<g id="XMLID_232_">
					<path id="XMLID_242_" fill="#603A17" d="M202.1,137c-0.2,0.6-0.5,1.1-0.7,1.7c-0.9,2.3-4.2,2.6-7.5,0.8
						c-16.9-9.6-32.7-19.6-47.7-29.7c-2.9-1.9-4-5.5-2.5-7.9c0.4-0.6,0.7-1.2,1.1-1.8c1.5-2.4,5-2.8,7.7-0.8
						c14.2,10.2,29.5,20.3,45.6,30.1C201.3,131.3,203,134.7,202.1,137z"/>
					<path id="XMLID_241_" fill="none" stroke="#281A18" stroke-width="3.9999" stroke-miterlimit="10" d="M196.9,128.6
						c-5,11.3-19.2,13.9-32.6,6.2c-13.4-7.7-19-23.5-11.4-35.3"/>
					<path id="XMLID_240_" opacity="0.62" fill="#281A18" d="M163.9,107.2c-2,3.5-4,7-5.8,10.5c-0.6-0.4-1.2-0.8-1.8-1.2
						c1.8-3.5,3.8-7,5.8-10.5C162.8,106.4,163.3,106.8,163.9,107.2z"/>
					<path id="XMLID_239_" opacity="0.62" fill="#281A18" d="M168.2,110.2c-2,3.5-3.8,7-5.6,10.5c-0.6-0.4-1.2-0.8-1.8-1.2
						c1.8-3.5,3.7-7,5.7-10.5C167.1,109.4,167.6,109.8,168.2,110.2z"/>
					<path id="XMLID_238_" opacity="0.62" fill="#281A18" d="M172.6,113.1c-1.9,3.5-3.7,7-5.4,10.4c-0.6-0.4-1.2-0.8-1.8-1.2
						c1.7-3.5,3.5-6.9,5.5-10.4C171.4,112.3,172,112.7,172.6,113.1z"/>
					<path id="XMLID_237_" opacity="0.62" fill="#281A18" d="M177,116c-1.8,3.5-3.6,6.9-5.2,10.4c-0.6-0.4-1.2-0.8-1.9-1.2
						c1.6-3.4,3.4-6.9,5.3-10.4C175.8,115.2,176.4,115.6,177,116z"/>
					<path id="XMLID_236_" opacity="0.62" fill="#281A18" d="M181.5,118.9c-1.8,3.5-3.4,6.9-5,10.3c-0.6-0.4-1.3-0.8-1.9-1.2
						c1.6-3.4,3.3-6.9,5.1-10.3C180.3,118.1,180.9,118.5,181.5,118.9z"/>
					<path id="XMLID_235_" opacity="0.62" fill="#281A18" d="M186,121.8c-1.7,3.5-3.3,6.9-4.8,10.3c-0.6-0.4-1.3-0.8-1.9-1.1
						c1.5-3.4,3.1-6.8,4.9-10.3C184.8,121,185.4,121.4,186,121.8z"/>
					<path id="XMLID_234_" opacity="0.62" fill="#281A18" d="M190.6,124.7c-1.6,3.4-3.2,6.8-4.6,10.2c-0.6-0.4-1.3-0.8-1.9-1.1
						c1.4-3.4,3-6.8,4.7-10.2C189.4,123.9,190,124.3,190.6,124.7z"/>
					<path id="XMLID_233_" opacity="0.62" fill="#281A18" d="M195.3,127.6c-1.6,3.4-3.1,6.8-4.4,10.2c-0.7-0.4-1.3-0.8-2-1.1
						c1.4-3.4,2.9-6.8,4.5-10.2C194,126.8,194.6,127.2,195.3,127.6z"/>
				</g>
				<g id="XMLID_229_">
					<path id="XMLID_231_" fill="#C3C2C2" d="M152.8,99.5c-3.6,2.9-7.1,5.9-10.6,8.8C89.8,74.2,54,36,39.5,0
						C52.2,2.8,65,5.6,77.9,8.4C91,44.7,120.7,79.8,152.8,99.5z"/>
					<path id="XMLID_230_" opacity="0.85" fill="#FFFFFF" d="M146.9,108.5c-0.7,0.6-1.3,1.1-2,1.7C91.4,75.5,54.8,36.6,39.9,0.1
						c1.6,0.4,3.2,0.7,4.8,1.1C59.5,36.9,95.1,74.7,146.9,108.5z"/>
				</g>
				<path id="XMLID_228_" fill="#281A18" d="M163.2,95c-7.5,11.6-13.8,23.1-18.9,34.3c-3.9-2.4-7.8-4.8-11.7-7.2
					c5.6-11.3,12.4-22.9,20.5-34.5C156.5,90,159.8,92.5,163.2,95z"/>
			</g>
		</g>
		<g id="XMLID_4376_">
			<g id="XMLID_243_">
				<g id="XMLID_248_">
					<path id="XMLID_258_" fill="#603A17" d="M45.6,137c0.2,0.6,0.5,1.1,0.7,1.7c0.9,2.3,4.2,2.6,7.5,0.8
						c16.9-9.6,32.7-19.6,47.7-29.7c2.9-1.9,4-5.5,2.5-7.9c-0.4-0.6-0.7-1.2-1.1-1.8c-1.5-2.4-5-2.8-7.7-0.8
						c-14.2,10.2-29.5,20.3-45.6,30.1C46.4,131.3,44.7,134.7,45.6,137z"/>
					<path id="XMLID_257_" fill="none" stroke="#281A18" stroke-width="3.9999" stroke-miterlimit="10" d="M50.8,128.6
						c5,11.3,19.2,13.9,32.6,6.2c13.4-7.7,19-23.5,11.4-35.3"/>
					<path id="XMLID_256_" opacity="0.62" fill="#281A18" d="M83.8,107.2c2,3.5,4,7,5.8,10.5c0.6-0.4,1.2-0.8,1.8-1.2
						c-1.8-3.5-3.8-7-5.8-10.5C84.9,106.4,84.4,106.8,83.8,107.2z"/>
					<path id="XMLID_255_" opacity="0.62" fill="#281A18" d="M79.5,110.2c2,3.5,3.8,7,5.6,10.5c0.6-0.4,1.2-0.8,1.8-1.2
						c-1.8-3.5-3.7-7-5.7-10.5C80.6,109.4,80.1,109.8,79.5,110.2z"/>
					<path id="XMLID_254_" opacity="0.62" fill="#281A18" d="M75.1,113.1c1.9,3.5,3.7,7,5.4,10.4c0.6-0.4,1.2-0.8,1.8-1.2
						c-1.7-3.5-3.5-6.9-5.5-10.4C76.3,112.3,75.7,112.7,75.1,113.1z"/>
					<path id="XMLID_253_" opacity="0.62" fill="#281A18" d="M70.7,116c1.8,3.5,3.6,6.9,5.2,10.4c0.6-0.4,1.2-0.8,1.9-1.2
						c-1.6-3.4-3.4-6.9-5.3-10.4C71.9,115.2,71.3,115.6,70.7,116z"/>
					<path id="XMLID_252_" opacity="0.62" fill="#281A18" d="M66.2,118.9c1.8,3.5,3.4,6.9,5,10.3c0.6-0.4,1.3-0.8,1.9-1.2
						c-1.6-3.4-3.3-6.9-5.1-10.3C67.4,118.1,66.8,118.5,66.2,118.9z"/>
					<path id="XMLID_251_" opacity="0.62" fill="#281A18" d="M61.7,121.8c1.7,3.5,3.3,6.9,4.8,10.3c0.6-0.4,1.3-0.8,1.9-1.1
						c-1.5-3.4-3.1-6.8-4.9-10.3C62.9,121,62.3,121.4,61.7,121.8z"/>
					<path id="XMLID_250_" opacity="0.62" fill="#281A18" d="M57.1,124.7c1.6,3.4,3.2,6.8,4.6,10.2c0.6-0.4,1.3-0.8,1.9-1.1
						c-1.4-3.4-3-6.8-4.7-10.2C58.3,123.9,57.7,124.3,57.1,124.7z"/>
					<path id="XMLID_249_" opacity="0.62" fill="#281A18" d="M52.4,127.6c1.6,3.4,3.1,6.8,4.4,10.2c0.7-0.4,1.3-0.8,2-1.1
						c-1.4-3.4-2.9-6.8-4.5-10.2C53.7,126.8,53.1,127.2,52.4,127.6z"/>
				</g>
				<g id="XMLID_245_">
					<path id="XMLID_247_" fill="#C3C2C2" d="M94.9,99.5c3.6,2.9,7.1,5.9,10.6,8.8C157.9,74.2,193.7,36,208.2,0
						c-12.7,2.8-25.5,5.6-38.4,8.4C156.7,44.7,127,79.8,94.9,99.5z"/>
					<path id="XMLID_246_" opacity="0.85" fill="#FFFFFF" d="M100.8,108.5c0.7,0.6,1.3,1.1,2,1.7c53.6-34.6,90.2-73.5,105.1-110.1
						c-1.6,0.4-3.2,0.7-4.8,1.1C188.2,36.9,152.6,74.7,100.8,108.5z"/>
				</g>
				<path id="XMLID_244_" fill="#281A18" d="M84.5,95c7.5,11.6,13.8,23.1,18.9,34.3c3.9-2.4,7.8-4.8,11.7-7.2
					c-5.6-11.3-12.4-22.9-20.5-34.5C91.2,90,87.9,92.5,84.5,95z"/>
			</g>
		</g>
	</g>
	<g id="pbody">
		<g id="XMLID_4536_">
			<path id="XMLID_4649_" fill="#212A31" d="M85.5,37.9c0,0,57.5-9.2,74.4,2.6s6.9-6,6.9-6S144.9,6.7,121,9.2S83.4,34.8,83.4,34.8"
				/>
			<linearGradient id="XMLID_73_" gradientUnits="userSpaceOnUse" x1="123.8527" y1="92.2899" x2="123.8527" y2="22.571">
				<stop  offset="0" style="stop-color:#F2986B"/>
				<stop  offset="0.2426" style="stop-color:#F6AE7C"/>
				<stop  offset="0.5411" style="stop-color:#FAC48F"/>
				<stop  offset="0.8036" style="stop-color:#FED19C"/>
				<stop  offset="1" style="stop-color:#FFD6A0"/>
			</linearGradient>
			<path id="XMLID_4648_" fill="url(#XMLID_73_)" d="M57.3,92.3c0-38.5,29.8-69.7,66.5-69.7s66.5,31.2,66.5,69.7"/>
			<g id="XMLID_4645_">
				<g id="XMLID_4647_">
					<g id="XMLID_64_">
						<path id="XMLID_68_" fill="#FFFFFF" d="M122.3,12.4c-1.9,2-4.1,3.6-6.6,4.9c-1.7,0.9-0.2,3.4,1.5,2.6c2.7-1.4,5.1-3.2,7.2-5.3
							C125.7,13.1,123.6,11,122.3,12.4L122.3,12.4z"/>
					</g>
				</g>
				<g id="XMLID_4646_">
					<g id="XMLID_58_">
						<path id="XMLID_62_" fill="#FFFFFF" d="M116.4,13c1.5,2.8,3.8,5.1,6.7,6.5c1.7,0.8,3.2-1.7,1.5-2.6c-2.4-1.2-4.3-3-5.6-5.4
							C118.1,9.8,115.5,11.3,116.4,13L116.4,13z"/>
					</g>
				</g>
			</g>
			<g id="XMLID_4644_">
				<g id="XMLID_52_">
					<path id="XMLID_56_" fill="#212A31" d="M113.8,21.5C104.1,33.1,91.5,42.4,76,43.1c-2.2,0.1-2.2,3.6,0,3.5
						c16.5-0.8,30-10.2,40.3-22.6C117.7,22.3,115.2,19.8,113.8,21.5L113.8,21.5z"/>
				</g>
			</g>
			<path id="XMLID_4643_" fill="#212A31" d="M168.4,33.1c0,0-3.7,1.1-2.5,3.1c1.2,2.1,4.2,4,4.8,3.7c0.6-0.3,3.6-5.5,2.5-6.9
				C172.1,31.8,168.4,33.1,168.4,33.1z"/>
			<path id="XMLID_4642_" fill="#212A31" d="M170.5,34.9c0,0,6.1-14.7,9.7-13.1s9,10.7,9.5,10.7c0.4,0-15.3,0.7-15.3,0.7L170.5,34.9
				z"/>
			<path id="XMLID_4641_" fill="#212A31" d="M170.5,34.9c0,0,15.6-1.5,16.7,2.3c1.2,3.8,0,9.5,0,9.5l-16.7-8.5V34.9z"/>
			<g id="XMLID_4640_">
				<g id="XMLID_46_">
					<path id="XMLID_50_" fill="#F2986B" d="M156.1,40.1c0.3,0.2,0.7,0.4,1,0.7c0.7,0.4,1.7,0.1,2.1-0.5c0.4-0.7,0.1-1.6-0.5-2.1
						c-0.3-0.2-0.7-0.4-1-0.7c-0.7-0.4-1.7-0.1-2.1,0.5C155.1,38.7,155.4,39.6,156.1,40.1L156.1,40.1z"/>
				</g>
			</g>
			<g id="XMLID_4639_">
				<g id="XMLID_40_">
					<path id="XMLID_44_" fill="#F2986B" d="M163.8,46.5c0.1,0.1,0.1,0.1,0.2,0.2c1.4,1.4,3.5-0.8,2.1-2.1c-0.1-0.1-0.1-0.1-0.2-0.2
						C164.6,43,162.4,45.1,163.8,46.5c0.1,0.1,0.1,0.1,0.2,0.2c1.4,1.4,3.5-0.8,2.1-2.1c-0.1-0.1-0.1-0.1-0.2-0.2
						C164.6,43,162.4,45.1,163.8,46.5L163.8,46.5z"/>
				</g>
			</g>
			<g id="XMLID_4638_">
				<g id="XMLID_34_">
					<path id="XMLID_38_" fill="#F2986B" d="M157.5,46.8c0.2,0.2,0.4,0.4,0.7,0.7c0.6,0.6,1.5,0.6,2.1,0c0.6-0.6,0.6-1.5,0-2.1
						c-0.2-0.2-0.4-0.4-0.7-0.7c-0.6-0.6-1.5-0.6-2.1,0C156.9,45.3,156.9,46.2,157.5,46.8L157.5,46.8z"/>
				</g>
			</g>
			<g id="XMLID_4637_">
				<g id="XMLID_29_">
					<path id="XMLID_72_" fill="#F2986B" d="M165.5,53.9C165.5,53.9,165.5,53.9,165.5,53.9c-0.2-0.2-0.5-0.4-0.8-0.7
						c0-0.1-0.1-0.2-0.1-0.2c0-0.3,0-0.5,0-0.8c0,0,0,0,0,0.1c0.1-0.2,0.3-0.4,0.4-0.7c0,0,0,0,0,0.1c0.4-0.1,0.7-0.3,1.1-0.4
						c0,0,0,0-0.1,0c-0.8,0.1-1.5,0.6-1.5,1.5c0,0.7,0.7,1.6,1.5,1.5c0.8-0.1,1.5-0.5,1.6-1.4c0.1-0.8-0.4-1.6-1.2-1.8
						c-0.8-0.1-1.7,0.2-1.8,1C164.3,52.8,164.7,53.8,165.5,53.9L165.5,53.9z"/>
				</g>
			</g>
		</g>
	</g>
</g>
<g id="face">
	<g id="fc-smile" class="go-svg svg-hide">
		<path id="XMLID_4635_" display="inline" fill="#292929" d="M107.8,38.7c0-2.4-1.9-4.3-4.3-4.3s-4.3,1.9-4.3,4.3"/>
		<path id="XMLID_4634_" display="inline" fill="#292929" d="M141.8,38.7c0-1.4-1.1-2.5-2.5-2.5s-2.5,1.1-2.5,2.5"/>
		<g id="XMLID_4630_" display="inline">
			<defs>
				<path id="XMLID_4631_" d="M135.2,40.3c0,6.6-5.4,12-12,12c-6.6,0-12-5.4-12-12c0,0,8.8,2.4,12,2.4
					C126.4,42.8,135.2,40.3,135.2,40.3z"/>
			</defs>
			<use xlink:href="#XMLID_4631_"  overflow="visible" fill="#292826"/>
			<clipPath id="XMLID_364_">
				<use xlink:href="#XMLID_4631_"  overflow="visible"/>
			</clipPath>
			<rect id="XMLID_4633_" x="110.7" y="38.5" clip-path="url(#XMLID_364_)" fill="#FFFFFF" width="25" height="7.2"/>
			<ellipse id="XMLID_4632_" clip-path="url(#XMLID_364_)" fill="#F16462" cx="123.2" cy="51.6" rx="6.9" ry="4.7"/>
		</g>
		<ellipse id="XMLID_4629_" display="inline" fill="#F16462" cx="153.6" cy="44" rx="7" ry="3"/>
		<ellipse id="XMLID_4628_" display="inline" fill="#F16462" cx="91.4" cy="44" rx="7" ry="3"/>
		<path id="XMLID_4621_" display="inline" fill="#292929" d="M118.4,58.5l5.8-4.1l5.8,4.1"/>
	</g>
	<g id="fc-dot" class="go-svg svg-hide">
		<ellipse id="XMLID_5245_" display="inline" fill="#292929" cx="104.4" cy="37.2" rx="4.3" ry="4.3"/>
		<ellipse id="XMLID_15_" display="inline" fill="#292929" cx="139.1" cy="36.7" rx="2" ry="2"/>
		
			<line id="XMLID_5217_" display="inline" fill="none" stroke="#212A31" stroke-linecap="round" stroke-miterlimit="10" x1="115.3" y1="46.1" x2="125.9" y2="46.1"/>
		<path id="XMLID_5215_" display="inline" fill="#292929" d="M115.7,52.1l5.8-4.1l5.8,4.1"/>
	</g>
	<g id="fc-no" class="go-svg svg-hide">
		<ellipse id="XMLID_2268_" display="inline" fill="#292929" cx="103.9" cy="35.4" rx="4.3" ry="4.3"/>
		<ellipse id="XMLID_2267_" display="inline" fill="#292929" cx="139.8" cy="35.4" rx="2.5" ry="2.5"/>
		<g id="XMLID_2264_" display="inline">
			<rect id="XMLID_2266_" x="115.6" y="39.7" fill="#292929" width="18.2" height="26.2"/>
			<rect id="XMLID_2265_" x="120.1" y="55" fill="#F15B5A" width="9.3" height="10.9"/>
		</g>
	</g>
	<g id="fc-cry" class="go-svg svg-hide">
		<path id="XMLID_1627_" display="inline" fill="#292929" d="M134.1,24.7c0.3-0.9,2.6-1,5.2-0.2c2.6,0.8,4.5,2.2,4.2,3.1"/>
		<path id="XMLID_1626_" display="inline" fill="#292929" d="M111.2,24.7c-0.3-0.9-2.6-1-5.2-0.2c-2.6,0.8-4.5,2.2-4.2,3.1"/>
		<g id="XMLID_1607_" display="inline">
			<defs>
				<path id="XMLID_1610_" d="M112.6,54.4c0-17,4.8-30.7,10.7-30.7s10.7,13.8,10.7,30.7l-10.2-9.1L112.6,54.4z"/>
			</defs>
			<use xlink:href="#XMLID_1610_"  overflow="visible" fill="#292826"/>
			<clipPath id="XMLID_365_">
				<use xlink:href="#XMLID_1610_"  overflow="visible"/>
			</clipPath>
			<ellipse id="XMLID_1625_" clip-path="url(#XMLID_365_)" fill="#F16462" cx="123.3" cy="52.7" rx="6.2" ry="11.9"/>
		</g>
		<g id="XMLID_1603_" display="inline">
			<path id="XMLID_390_" fill="#292929" d="M135.8,52.3c0,0,0.3,0.4,0.5,1.1c0.1,0.3,0.2,0.8,0.3,1.2c0.1,0.5,0,1-0.1,1.6
				c-0.1,0.3-0.3,0.6-0.5,0.8c-0.2,0.2-0.6,0.3-0.9,0.3c-0.4,0.1-1,0-1.3-0.1c-0.4-0.1-0.7-0.3-0.8-0.5c-0.1-0.2-0.2-0.3-0.2-0.3
				s0.1,0.1,0.3,0.2c0.2,0.1,0.5,0.1,0.8,0.1c0.3,0,0.7-0.1,1.1-0.2c0.2-0.1,0.3-0.1,0.4-0.2c0.1-0.1,0.2-0.2,0.2-0.4
				c0.1-0.2,0.1-0.4,0.1-0.6c0-0.2,0.1-0.4,0.1-0.6c0-0.4,0-0.8,0-1.2C135.8,52.8,135.8,52.3,135.8,52.3z"/>
		</g>
		<g id="XMLID_1600_" display="inline">
			<path id="XMLID_378_" fill="#292929" d="M111.3,52.3c0,0,0,0.5,0,1.2c0,0.4,0,0.8,0,1.2c0,0.2,0,0.4,0.1,0.6
				c0,0.2,0.1,0.4,0.1,0.6c0.1,0.2,0.1,0.3,0.2,0.4c0.1,0.1,0.2,0.2,0.4,0.2c0.4,0.1,0.8,0.2,1.1,0.2c0.3,0,0.6,0,0.8-0.1
				c0.2-0.1,0.3-0.2,0.3-0.2s0,0.1-0.2,0.3c-0.1,0.2-0.4,0.4-0.8,0.5c-0.4,0.1-0.9,0.1-1.3,0.1c-0.2,0-0.6-0.1-0.9-0.3
				c-0.3-0.2-0.4-0.5-0.5-0.8c-0.2-0.6-0.2-1.1-0.1-1.6c0-0.5,0.2-0.9,0.3-1.2C111,52.7,111.3,52.3,111.3,52.3z"/>
		</g>
		<path id="XMLID_1598_" display="inline" fill="#292929" d="M117.6,58.1l5.8-4.1l5.7,4.1"/>
		<g id="XMLID_1597_" display="inline">
			<g id="XMLID_391_">
				<path id="XMLID_395_" fill="#63BCB8" d="M103.9,24.2c-12.7-7.1-28.1-3.3-37.6,7.3c-10.5,11.8-12.2,28-9.6,43
					c0.3,1.9,3.2,1.1,2.9-0.8c-2.4-13.4-1.1-28,7.8-38.9c8.4-10.3,22.9-14.6,34.9-7.9C104.1,27.7,105.6,25.1,103.9,24.2L103.9,24.2z
					"/>
			</g>
		</g>
		<g id="XMLID_1596_" display="inline">
			<g id="XMLID_385_">
				<path id="XMLID_389_" fill="#63BCB8" d="M144.4,28c10.8-8.3,26.8-7.3,35.8,3.2c10.2,11.9,9.3,28.7,8.5,43.3
					c-0.1,1.9,2.9,1.9,3,0c0.9-16.2,1.5-35.4-11.4-47.6c-10.2-9.5-26.4-9.9-37.4-1.5C141.4,26.6,142.9,29.2,144.4,28L144.4,28z"/>
			</g>
		</g>
		<g id="XMLID_1595_" display="inline">
			<g id="XMLID_379_">
				<path id="XMLID_383_" fill="#63BCB8" d="M104.5,23.7c-1.8,0.4-3.4,1.3-4.7,2.6c-1.1,1.1,0,2.9,1.5,2.5c1.6-0.4,3.2-0.9,4.7-1.6
					c0.7-0.3,0.9-1.4,0.5-2.1c-0.4-0.8-1.3-0.9-2.1-0.5c-1.3,0.6-2.6,1-4,1.3c0.5,0.8,1,1.7,1.5,2.5c1-1,2.1-1.6,3.4-1.8
					C107.1,26.2,106.3,23.3,104.5,23.7L104.5,23.7z"/>
			</g>
		</g>
		<g id="XMLID_1594_" display="inline">
			<g id="XMLID_373_">
				<path id="XMLID_377_" fill="#63BCB8" d="M140.8,26.8c1.2,0.7,2.2,1.6,3.1,2.7c0.6-0.7,1.1-1.5,1.7-2.2c-1-0.3-1.8-0.8-2.6-1.4
					c-0.7-0.5-1.7-0.1-2.1,0.5c-0.4,0.8-0.1,1.6,0.5,2.1c1,0.8,2.1,1.3,3.3,1.7c1.2,0.4,2.5-1.1,1.7-2.2c-1.2-1.5-2.5-2.8-4.1-3.8
					C140.6,23.2,139.1,25.8,140.8,26.8L140.8,26.8z"/>
			</g>
		</g>
	</g>
</g>
<g id="bar">
	<rect id="XMLID_4636_" x="56.8" y="60.2" fill="#AD8B66" width="134.2" height="10.1"/>
	<polygon id="XMLID_4535_" fill="#FED800" points="222.7,119 10.7,119 25,65.5 237,65.5 	"/>
</g>
<g id="hand">
	<g id="hn-down" class="go-svg svg-hide">
		<g id="XMLID_4603_" display="inline">
			<g id="XMLID_4615_">
				<g id="XMLID_322_">
					<path id="XMLID_346_" fill="#212A31" d="M166.8,53c-4.1,4.9-8.9,8.8-14.4,12c0.7,0.2,1.4,0.4,2.1,0.5c-1.6-2.6-3.4-5-5.3-7.4
						c-1.2-1.5-3.3,0.6-2.1,2.1c1.7,2.2,3.3,4.5,4.8,6.8c0.4,0.7,1.3,0.9,2.1,0.5c5.8-3.2,10.8-7.4,15-12.4
						C170.1,53.7,168,51.5,166.8,53L166.8,53z"/>
				</g>
			</g>
			<g id="XMLID_4609_">
				<path id="XMLID_90_" fill="#212A31" d="M137.7,57.8L137.7,57.8c1.9,1.6,4.5,2.2,7,1.9c7.7-0.7,4.1-9.8-1.1-11.6
					C137.7,46.2,132.6,53.3,137.7,57.8z"/>
			</g>
		</g>
		<g id="XMLID_4538_" display="inline">
			<g id="XMLID_4540_">
				<g id="XMLID_116_">
					<path id="XMLID_181_" fill="#212A31" d="M79.3,55.8c4.2,5.1,9.3,9.2,15,12.4c0.7,0.4,1.6,0.2,2.1-0.5c1.5-2.4,3.1-4.6,4.8-6.8
						c1.2-1.5-0.9-3.6-2.1-2.1c-1.9,2.4-3.7,4.8-5.3,7.4c0.7-0.2,1.4-0.4,2.1-0.5c-5.5-3.1-10.3-7.1-14.4-12
						C80.2,52.2,78,54.3,79.3,55.8L79.3,55.8z"/>
				</g>
			</g>
			<g id="XMLID_4539_">
				<path id="XMLID_86_" fill="#212A31" d="M110.5,58.5L110.5,58.5c-1.9,1.6-4.5,2.2-7,1.9c-7.7-0.7-4.1-9.8,1.1-11.6
					C110.5,46.9,115.6,54,110.5,58.5z"/>
			</g>
		</g>
	</g>
	<g id="hn-up" class="go-svg svg-hide">
		<g id="XMLID_5230_">
			<g id="XMLID_5235_">
				<g id="XMLID_5236_">
					<g id="XMLID_354_">
						<path id="XMLID_358_" fill="#292929" d="M172.8,53.7c11.1-5.8,20-15.6,25-27c0.9-2.1-2.2-3.9-3.1-1.8
							c-4.8,10.9-13.1,20.2-23.7,25.7C168.9,51.7,170.8,54.8,172.8,53.7L172.8,53.7z"/>
					</g>
				</g>
			</g>
			<g id="XMLID_5231_">
				<g id="XMLID_5233_">
					<path id="XMLID_5234_" fill="#212A31" d="M204.7,23.7c-1.8,3.8-5.8,5.7-8.9,4.1c-3.1-1.6-4.3-5-2.5-8.9c1.8-3.8,6-6.7,9.1-5.1
						C205.5,15.5,206.5,19.9,204.7,23.7z"/>
				</g>
				<path id="XMLID_5232_" fill="#212A31" d="M193.6,19.1c0.5,2.3,2.1,7.3,0.9,7.6c-1.1,0.3-3.4-4.4-4-6.6c-0.5-2.3-0.1-4.3,1.1-4.6
					C192.7,15.2,193,16.8,193.6,19.1z"/>
			</g>
		</g>
		<g id="XMLID_5223_">
			<g id="XMLID_5228_">
				<g id="XMLID_5229_">
					<g id="XMLID_348_">
						<path id="XMLID_352_" fill="#292929" d="M77.7,50.6C67.1,45.1,58.7,35.8,54,24.9c-0.9-2.1-4-0.3-3.1,1.8
							c5,11.4,13.9,21.2,25,27C77.9,54.8,79.7,51.7,77.7,50.6L77.7,50.6z"/>
					</g>
				</g>
			</g>
			<g id="XMLID_5224_">
				<g id="XMLID_5226_">
					<path id="XMLID_5227_" fill="#212A31" d="M44,23.7c1.8,3.8,5.8,5.7,8.9,4.1c3.1-1.6,4.3-5,2.5-8.9c-1.8-3.8-6-6.7-9.1-5.1
						C43.2,15.5,42.2,19.9,44,23.7z"/>
				</g>
				<path id="XMLID_5225_" fill="#212A31" d="M55.1,19.1c-0.5,2.3-2.1,7.3-0.9,7.6s3.4-4.4,4-6.6s0.1-4.3-1.1-4.6
					C56,15.2,55.6,16.8,55.1,19.1z"/>
			</g>
		</g>
	</g>
	<g id="hn-noob" class="go-svg svg-hide">
		<path id="XMLID_2447_" display="inline" fill="none" stroke="#212A31" stroke-width="2" stroke-miterlimit="10" d="M149.5,55.7
			c2.9-2.9,7.9-6.8,12-7.3c1.5-0.2,3.1-0.2,4.4,0.6"/>
		<path id="XMLID_2445_" display="inline" fill="#212A31" d="M150.5,64.3c0.4,1.8,0.6,3.7,0.4,5.6c-0.1,0.8-0.2,1.7-0.7,2.4
			c-0.5,0.7-1.3,1.2-2.1,1c-0.6-0.1-1.1-0.7-1.3-1.2s-0.3-1.2-0.4-1.8c-0.1-1.2-0.1-4.5,0-5.7"/>
		<path id="XMLID_2442_" display="inline" fill="#212A31" d="M150.1,54.5c-1.9,0.7-3.6,2.1-4.5,3.9c-1,1.8-1.2,3.9-0.7,5.9
			c0.2,0.6,0.4,1.2,0.8,1.7c0.3,0.4,0.8,0.7,1.2,1.1c0.5,0.4,0.9,0.9,1.4,1.3c1.8,1.5,4.5,1.8,6.5,0.5c2-1.2,2.9-3.9,2-6
			c-0.3-0.8-0.9-1.5-0.8-2.4c0-0.5,0.3-0.9,0.4-1.4c0.5-1,0.8-2.3,0.3-3.2c-0.4-0.7-1.2-1.2-2-1.4c-0.8-0.2-1.7-0.1-2.5,0
			L150.1,54.5z"/>
	</g>
</g>
<g id="dialog">
	<g id="dl-noo" class="go-svg svg-hide">
		<ellipse id="XMLID_225_" fill="#292929" cx="39.9" cy="24.5" rx="31.4" ry="23.7"/>
		<g id="XMLID_201_">
			<g id="XMLID_218_">
				<g id="XMLID_220_">
					<path id="XMLID_224_" fill="#FFFFFF" d="M22.6,32.4c-0.1-3.4,0.1-6.9,0.7-10.3c0.2-1.4,0.5-2.8,0.9-4.2
						c0.6-2.3,0.3-2.3,0.9-0.1c0.9,3.4,2.5,10.2,5.4,12.7c2.3,1.9,4.2-0.5,5-2.6c1.9-5,0.6-10.8-0.3-15.8c-0.3-1.6-2.7-0.9-2.4,0.7
						c0.5,3.1,1.2,6.4,1.1,9.6c0,1-0.2,5.4-1.2,5.8c-1.2,0.4-1.5-1.2-1.9-2.1c-1.2-2.5-1.9-5.1-2.8-7.6c-0.5-1.3-0.9-3.7-2.2-4.6
						c-5.4-4-5.8,16.3-5.7,18.5C20.1,34.1,22.7,34.1,22.6,32.4L22.6,32.4z"/>
				</g>
			</g>
			<g id="XMLID_211_">
				<g id="XMLID_213_">
					<path id="XMLID_217_" fill="#FFFFFF" d="M42.5,31.7c3,0.5,6-0.9,6.5-4.1c0.6-3.1-1.8-5.6-4.8-6.1c-2.8-0.5-5.6,1.1-6.1,4
						C37.6,28.4,39.6,31,42.5,31.7c1.6,0.4,2.2-2.1,0.7-2.4c-1.5-0.3-2.8-1.4-2.6-3.1c0.1-1.6,1.4-2.5,3-2.3
						c1.6,0.2,3.3,1.3,3.1,3.1c-0.2,1.7-1.8,2.5-3.4,2.2C41.6,29,40.9,31.4,42.5,31.7z"/>
				</g>
			</g>
			<g id="XMLID_202_">
				<g id="XMLID_204_">
					<path id="XMLID_208_" fill="#FFFFFF" d="M54.3,22.2c-2.1,0.5-3.9,2.2-3.9,4.4c0,2.3,1.9,4.3,4.2,4.2c2.2-0.1,4.8-2.1,5.2-4.4
						c0.2-1-0.1-2.2-0.9-2.9c-0.9-0.9-2.1-0.8-3.2-1.3c-1.5-0.6-2.1,1.8-0.7,2.4c0.8,0.3,2.3,0.2,2.3,1.2c0.1,1.1-1.8,2.2-2.7,2.4
						c-1.1,0.2-1.9-0.8-1.7-1.8c0.2-1,1.1-1.6,2-1.8C56.5,24.2,55.9,21.8,54.3,22.2L54.3,22.2z"/>
				</g>
			</g>
		</g>
		<polyline id="XMLID_200_" fill="#292929" points="68.2,30.5 77.5,43.5 51.6,40.7 		"/>
	</g>
	<g id="dl-cool" class="go-svg svg-hide">
		<g id="XMLID_197_">
			<ellipse id="XMLID_199_" fill="#292929" cx="39.8" cy="24.5" rx="31.4" ry="23.7"/>
			<polyline id="XMLID_198_" fill="#292929" points="68.2,30.5 77.5,43.5 51.6,40.7 			"/>
		</g>
		<g id="XMLID_106_">
			<g id="XMLID_131_">
				<g id="XMLID_133_">
					<path id="XMLID_140_" fill="#FFFFFF" d="M25,15.1c-5.3,0.7-10.3,4.4-9.4,10.3c0.9,5.5,7,8.4,11.7,5.3c1.3-0.9,0.1-3-1.2-2.1
						c-3.4,2.3-7.8,0.1-8.1-4.1c-0.3-4.2,3.3-6.5,7-7C26.5,17.4,26.6,14.9,25,15.1L25,15.1z"/>
				</g>
			</g>
			<g id="XMLID_124_">
				<g id="XMLID_126_">
					<path id="XMLID_130_" fill="#FFFFFF" d="M35.2,32.3c7.5-1.3,4.6-12.9-2.6-11.2C26,22.7,28.3,33,34.9,32.3
						c1.5-0.2,1.6-2.6,0-2.4c-1.8,0.2-3.3-0.7-3.7-2.5c-0.4-1.5,0.1-3.3,1.7-3.8c4.3-1.3,6.4,5.6,1.7,6.4
						C33,30.2,33.7,32.6,35.2,32.3z"/>
				</g>
			</g>
			<g id="XMLID_114_">
				<g id="XMLID_119_">
					<path id="XMLID_123_" fill="#FFFFFF" d="M43.1,30.2c2,2,5.6,1.7,7.3-0.4c1.7-2.1,1.6-5.3-0.3-7.2
						C45.3,17.5,39.1,25.7,43.1,30.2c1,1.2,2.8-0.6,1.7-1.7c-1.9-2.2,1-7,3.6-4.2c2.2,2.4-1,6.8-3.6,4.2
						C43.7,27.3,42,29.1,43.1,30.2z"/>
				</g>
			</g>
			<g id="XMLID_107_">
				<g id="XMLID_109_">
					<path id="XMLID_113_" fill="#FFFFFF" d="M55.9,10.4C55,13.7,50.2,32.7,57.8,31c1.5-0.3,0.9-2.7-0.6-2.3
						c-2.2,0.5,0.7-16.2,1.1-17.5C58.7,9.6,56.4,8.9,55.9,10.4L55.9,10.4z"/>
				</g>
			</g>
		</g>
	</g>
	<g id="dl-cry" class="go-svg svg-hide">
		<g id="XMLID_2433_">
			<ellipse id="XMLID_2435_" fill="#292929" cx="35.4" cy="24.2" rx="35.4" ry="23.7"/>
			<polyline id="XMLID_2434_" fill="#292929" points="67.8,30.3 77.1,43.2 51.2,40.4 			"/>
		</g>
		<g id="XMLID_2425_">
			<g id="XMLID_2432_">
				<g id="XMLID_305_">
					<path id="XMLID_309_" fill="#FFFFFF" d="M18.4,9.5c-0.3,3.5-0.3,7,0,10.5c0.1,1.7,2.7,1.7,2.6,0c-0.2-3.5-0.2-7,0-10.5
						C21.2,7.8,18.6,7.9,18.4,9.5L18.4,9.5z"/>
				</g>
			</g>
			<g id="XMLID_2431_">
				<g id="XMLID_299_">
					<path id="XMLID_303_" fill="#FFFFFF" d="M20.5,11.5c0.9-1.3,2.2-2.5,3.9-1.6c1.4,0.8,1.9,2.5,1.5,3.9c-0.6,2.6-3.1,4-5.4,4.9
						c-1.6,0.6-0.9,3.1,0.7,2.5c4.3-1.6,9.2-5.8,6.9-10.9c-0.8-1.7-2.4-3.1-4.3-3.3c-2.5-0.3-4.3,1.2-5.6,3.2
						C17.3,11.6,19.5,12.9,20.5,11.5L20.5,11.5z"/>
				</g>
			</g>
			<g id="XMLID_2430_">
				<g id="XMLID_293_">
					<path id="XMLID_297_" fill="#FFFFFF" d="M32.2,15.3c-2-1.7-3.9,0.7-4.3,2.6c-0.5,2.2,1.2,4.1,3.5,3.7c1.8-0.3,3.2-1.9,3-3.8
						c-0.2-2.1-2.3-3.4-4.3-3.1c-1.7,0.3-1,2.8,0.7,2.5c1-0.2,1.4,1.2,0.5,1.6c-0.2,0.1-0.7,0.2-0.9-0.1c-0.1-0.2,0.1-0.6,0.2-0.8
						c0.1-0.2,0.2-0.4,0.3-0.6c0.2-0.4,0.2,0-0.1-0.1c-0.2-0.1-0.4-0.2-0.6-0.3c0.1,0,0.1,0.1,0.2,0.1c0.5,0.5,1.3,0.5,1.8,0
						C32.7,16.7,32.8,15.8,32.2,15.3L32.2,15.3z"/>
				</g>
			</g>
			<g id="XMLID_2429_">
				<g id="XMLID_287_">
					<path id="XMLID_291_" fill="#FFFFFF" d="M34.5,15c0.2,1.5,0.3,3,0.5,4.4c0.2,1.7,2.5,1.7,2.6,0c0.1-0.7,0.3-1.4,0.6-2
						c0.1-0.3,0.3-0.5,0.5-0.7c0.1-0.1,0.2-0.3,0.4-0.4c-0.4-0.2-0.6-0.3-0.4,0c0,0.1,0.2,0.5,0.2,0.7c0.1,0.4,0.2,0.7,0.2,1.1
						c0.1,0.8,0.1,1.6,0.1,2.3c-0.1,1.7,2.5,1.7,2.6,0c0.1-2,0.1-6.4-2.7-6.7c-1.2-0.1-2.1,0.9-2.8,1.8c-0.8,1.2-1.2,2.5-1.3,3.9
						c0.9,0,1.7,0,2.6,0c-0.2-1.5-0.3-3-0.5-4.4C36.9,13.3,34.3,13.3,34.5,15L34.5,15z"/>
				</g>
			</g>
			<g id="XMLID_2428_">
				<g id="XMLID_281_">
					<path id="XMLID_285_" fill="#FFFFFF" d="M43.5,9.7c0.4,0.5,0.4,1,0,1.6c-0.9,1.4,1.3,2.7,2.3,1.3c0.8-1.3,0.8-3,0-4.2
						c-0.4-0.6-1.1-0.8-1.8-0.5C43.4,8.2,43.1,9.1,43.5,9.7L43.5,9.7z"/>
				</g>
			</g>
			<g id="XMLID_2427_">
				<g id="XMLID_275_">
					<path id="XMLID_279_" fill="#FFFFFF" d="M47.5,8.4c0.4,3.7,0.5,7.4,0.3,11.1c-0.1,1.7,2.5,1.7,2.6,0c0.2-3.7,0.1-7.4-0.3-11.1
						C49.9,6.8,47.3,6.7,47.5,8.4L47.5,8.4z"/>
				</g>
			</g>
			<g id="XMLID_2426_">
				<g id="XMLID_269_">
					<path id="XMLID_273_" fill="#FFFFFF" d="M47.6,17.6c1.6-0.9,3.2-1.4,5-1.6c1.7-0.2,1.7-2.8,0-2.6c-2.2,0.2-4.4,0.8-6.3,1.9
						C44.8,16.2,46.1,18.4,47.6,17.6L47.6,17.6z"/>
				</g>
			</g>
		</g>
		<g id="XMLID_2415_">
			<g id="XMLID_2424_">
				<g id="XMLID_263_">
					<path id="XMLID_267_" fill="#FFFFFF" d="M27.3,26.3c0.3,1.1,0.6,2.3,0.9,3.4c0.8-0.3,1.6-0.7,2.4-1c-2.2-4.2-7.5-0.7-8.4,2.7
						c-1.4,5.1,4.2,6.8,8.3,6.1c1.7-0.3,1-2.8-0.7-2.5c-1.7,0.3-5.1,0.2-5.1-2.3c0-0.7,0.3-1.3,0.7-1.9c0.5-0.6,2.2-2.3,3-0.8
						c0.7,1.3,2.8,0.4,2.4-1c-0.3-1.1-0.6-2.3-0.9-3.4C29.4,24,26.9,24.7,27.3,26.3L27.3,26.3z"/>
				</g>
			</g>
			<g id="XMLID_2423_">
				<g id="XMLID_196_">
					<path id="XMLID_261_" fill="#FFFFFF" d="M34.2,28C34.2,27.9,34.2,27.9,34.2,28c0.2-0.6-0.1-1.3-0.6-1.6c0,0-0.1,0-0.1-0.1
						c-0.8-0.4-1.7-0.1-1.9,0.8c-0.4,1.2,0.1,2.9,0.3,4.2c0.2,1.7,0.5,3.4,0.9,5.2c0.3,1.5,2.5,1.1,2.6-0.3c0-1-1.2-8.6,1.8-6.9
						c1.5,0.8,2.8-1.4,1.3-2.3c-1.8-1.1-4.1-0.4-5.2,1.4c-1.5,2.4-0.4,5.1-0.5,7.7c0.9-0.1,1.7-0.2,2.6-0.3
						c-0.3-1.3-0.5-2.6-0.7-3.9c-0.2-1-0.8-3.1-0.5-4.1c-0.6,0.3-1.3,0.5-1.9,0.8c0,0,0.1,0,0.1,0.1c-0.2-0.5-0.4-1-0.6-1.5
						c0,0,0,0.1,0,0.1C31.1,28.9,33.6,29.5,34.2,28L34.2,28z"/>
				</g>
			</g>
			<g id="XMLID_2416_">
				<g id="XMLID_190_">
					<path id="XMLID_194_" fill="#FFFFFF" d="M38.6,27.8c1,2,2.4,7.1,5.3,6.5c2.4-0.5,3.8-4.3,4.5-6.3c-0.9-0.1-1.7-0.2-2.6-0.3
						c-0.7,5.8-3.2,11.1-7.2,15.4c-1.1,1.2,0.7,3.1,1.8,1.8c4.5-4.9,7.1-10.7,8-17.3c0.2-1.6-2.1-1.6-2.6-0.3
						c-0.5,1.2-1.2,4.1-2.9,3.4c-0.7-0.3-1.8-3.5-2.2-4.2C40.1,25,37.8,26.3,38.6,27.8L38.6,27.8z"/>
				</g>
			</g>
		</g>
	</g>
	<g id="dl-noob" class="go-svg svg-hide">
		<ellipse id="XMLID_2704_" fill="#292929" cx="37.3" cy="24.2" rx="33.5" ry="23.7"/>
		<polyline id="XMLID_2703_" fill="#292929" points="67.7,30.3 77,43.2 51.1,40.4 		"/>
		<g id="XMLID_2689_">
			<g id="XMLID_2695_">
				<g id="XMLID_2702_">
					<g id="XMLID_341_">
						<path id="XMLID_345_" fill="#FFFFFF" d="M14.4,31c0.2-4.1,0.5-8.3,0.7-12.4c-0.6,0.3-1.3,0.5-1.9,0.8c2.7,2.5,3.8,6.6,6.3,9.4
							c0.7,0.7,1.9,0.1,1.9-0.8c0-4.1-0.3-8.1-0.8-12.2c-0.2-1.4-2.4-1.4-2.3,0c0.5,4.1,0.8,8.1,0.8,12.2c0.6-0.3,1.3-0.5,1.9-0.8
							c-2.5-2.8-3.5-6.8-6.3-9.4c-0.7-0.7-1.9-0.2-1.9,0.8c-0.2,4.1-0.5,8.3-0.7,12.4C12.1,32.4,14.3,32.4,14.4,31L14.4,31z"/>
					</g>
				</g>
				<g id="XMLID_2700_">
					<g id="XMLID_335_">
						<path id="XMLID_339_" fill="#FFFFFF" d="M30.3,30.3c2.4-0.6,3.9-2.9,3.5-5.4c-0.4-2.6-2.8-4-5.3-3.4c-2.4,0.6-4,2.9-3.5,5.4
							C25.5,29.6,27.8,30.8,30.3,30.3c1.4-0.3,0.8-2.4-0.6-2.2c-3.1,0.6-3.3-3.8-0.6-4.4c3.1-0.7,3.3,3.7,0.6,4.4
							C28.3,28.5,28.9,30.7,30.3,30.3z"/>
					</g>
				</g>
				<g id="XMLID_2699_">
					<g id="XMLID_329_">
						<path id="XMLID_333_" fill="#FFFFFF" d="M39.3,28.9c5.7,3.8,8.7-7,3.6-9.3c-2.3-1-5.3,0.3-6.1,2.6
							C36,24.8,37.3,27.5,39.3,28.9c1.2,0.8,2.3-1.1,1.1-1.9c-1-0.7-1.8-2.1-1.7-3.3c0.1-1.4,1.6-2.4,2.9-2c1.1,0.3,1.5,1.6,1.5,2.7
							c0,0.6-0.1,1.3-0.3,1.9c-0.5,1.2-1.4,1.5-2.5,0.8C39.3,26.2,38.1,28.1,39.3,28.9z"/>
					</g>
				</g>
				<g id="XMLID_2698_">
					<g id="XMLID_323_">
						<path id="XMLID_327_" fill="#FFFFFF" d="M47.7,17c0.3,3.9,0.7,7.9,1,11.8c0.1,1.3,1.7,1.5,2.2,0.3c0.4-1.1,0.8-2.5,1.4-3.5
							c0.3-0.4,0.6-0.9,0.9-1.3c2.7-0.4,4,0.4,3.8,2.5c0.2,1.8-0.2,2.5-2,3.1c-0.5,0.2-5,0.9-3.8-1c0.8-1.2-1.2-2.3-1.9-1.1
							c-1.5,2.4,0.5,4.7,3,4.8c2.7,0.2,6.5-1.2,7.3-4.1c0.8-2.7-1.4-7-4.4-7.2c-4-0.4-5.4,4.4-6.5,7.2c0.7,0.1,1.5,0.2,2.2,0.3
							c-0.3-3.9-0.7-7.9-1-11.8C49.8,15.5,47.6,15.5,47.7,17L47.7,17z"/>
					</g>
				</g>
			</g>
			<g id="XMLID_2688_">
				<g id="XMLID_2693_">
					<g id="XMLID_317_">
						<path id="XMLID_321_" fill="#FFFFFF" d="M62.4,18.7c-0.1,2.7,0,5.4,0.5,8.1c0.3,1.7,2.9,1,2.6-0.7c-0.4-2.4-0.5-4.9-0.4-7.4
							C65.2,16.9,62.5,16.9,62.4,18.7L62.4,18.7z"/>
					</g>
				</g>
				<g id="XMLID_2691_">
					<g id="XMLID_311_">
						<path id="XMLID_315_" fill="#FFFFFF" d="M64.2,31.8c1.7,0,1.7-2.7,0-2.7C62.5,29.1,62.5,31.8,64.2,31.8L64.2,31.8z"/>
					</g>
				</g>
			</g>
		</g>
	</g>
	<g id="dl-dot" class="go-svg svg-hide">
		<g id="XMLID_5256_">
			<ellipse id="XMLID_5258_" fill="#292929" cx="39.9" cy="24.5" rx="31.4" ry="23.7"/>
			<polyline id="XMLID_5257_" fill="#292929" points="68.2,30.5 77.5,43.5 51.6,40.7 			"/>
		</g>
		<g id="XMLID_5249_">
			<path id="XMLID_5254_" fill="#FFFFFF" d="M26.5,23.8c0-1.7,1.2-3,2.8-3c1.6,0,2.8,1.2,2.8,3c0,1.7-1.1,3-2.8,3
				C27.7,26.8,26.5,25.5,26.5,23.8z"/>
			<path id="XMLID_5252_" fill="#FFFFFF" d="M36.3,23.8c0-1.7,1.2-3,2.8-3c1.6,0,2.8,1.2,2.8,3c0,1.7-1.1,3-2.8,3
				C37.4,26.8,36.3,25.5,36.3,23.8z"/>
			<path id="XMLID_5250_" fill="#FFFFFF" d="M46,23.8c0-1.7,1.2-3,2.8-3c1.6,0,2.8,1.2,2.8,3c0,1.7-1.1,3-2.8,3
				C47.2,26.8,46,25.5,46,23.8z"/>
		</g>
	</g>
</g>
</svg>