<?xml version="1.0" encoding="utf-8"?>
<!-- Generator: Adobe Illustrator 19.0.0, SVG Export Plug-In . SVG Version: 6.00 Build 0)  -->
<svg version="1.1" id="Layer_1" xmlns="http://www.w3.org/2000/svg" xmlns:xlink="http://www.w3.org/1999/xlink" x="0px" y="0px"
	 viewBox="0 0 228.3 189.8" enable-background="new 0 0 228.3 189.8" xml:space="preserve">
<g id="XMLID_2117_">
	<g id="XMLID_2158_">
		<g id="XMLID_3561_">
			<g id="XMLID_3631_">
				<g id="XMLID_262_">
					<g id="XMLID_267_">
						<path id="XMLID_277_" fill="#603A17" d="M206.6,184.7c-0.3,0.7-0.6,1.5-0.9,2.2c-1.1,2.9-5.4,3.3-9.5,1
							c-21.4-12.2-41.6-24.8-60.5-37.7c-3.6-2.5-5.1-6.9-3.2-10c0.5-0.8,0.9-1.5,1.4-2.3c1.9-3.1,6.3-3.5,9.8-1.1
							c18.1,13,37.4,25.8,58,38.3C205.5,177.5,207.7,181.8,206.6,184.7z"/>
						<path id="XMLID_276_" fill="none" stroke="#281A18" stroke-width="5.0797" stroke-miterlimit="10" d="M199.9,174
							c-6.3,14.3-24.3,17.7-41.4,7.9c-17-9.8-24.1-29.9-14.5-44.9"/>
						<path id="XMLID_275_" opacity="0.62" fill="#281A18" d="M158.1,146.8c-2.6,4.5-5,8.9-7.3,13.3c-0.8-0.5-1.5-1-2.3-1.5
							c2.3-4.4,4.8-8.9,7.4-13.4C156.6,145.8,157.3,146.3,158.1,146.8z"/>
						<path id="XMLID_274_" opacity="0.62" fill="#281A18" d="M163.5,150.6c-2.5,4.5-4.9,8.9-7.1,13.3c-0.8-0.5-1.5-1-2.3-1.5
							c2.2-4.4,4.6-8.8,7.2-13.3C162.1,149.6,162.8,150.1,163.5,150.6z"/>
						<path id="XMLID_273_" opacity="0.62" fill="#281A18" d="M169.1,154.3c-2.4,4.4-4.7,8.9-6.8,13.2c-0.8-0.5-1.6-1-2.3-1.5
							c2.2-4.4,4.5-8.8,6.9-13.3C167.6,153.3,168.3,153.8,169.1,154.3z"/>
						<path id="XMLID_272_" opacity="0.62" fill="#281A18" d="M174.7,158c-2.3,4.4-4.5,8.8-6.6,13.2c-0.8-0.5-1.6-1-2.4-1.5
							c2.1-4.4,4.3-8.8,6.7-13.2C173.2,157,174,157.5,174.7,158z"/>
						<path id="XMLID_271_" opacity="0.62" fill="#281A18" d="M180.4,161.7c-2.3,4.4-4.4,8.8-6.3,13.1c-0.8-0.5-1.6-1-2.4-1.5
							c2-4.3,4.1-8.7,6.4-13.1C178.9,160.7,179.6,161.2,180.4,161.7z"/>
						<path id="XMLID_270_" opacity="0.62" fill="#281A18" d="M186.2,165.4c-2.2,4.4-4.2,8.7-6.1,13c-0.8-0.5-1.6-1-2.4-1.5
							c1.9-4.3,4-8.7,6.2-13.1C184.6,164.4,185.4,164.9,186.2,165.4z"/>
						<path id="XMLID_269_" opacity="0.62" fill="#281A18" d="M192,169.1c-2.1,4.4-4,8.7-5.8,13c-0.8-0.5-1.6-1-2.5-1.4
							c1.8-4.3,3.8-8.6,5.9-13C190.4,168.1,191.2,168.6,192,169.1z"/>
						<path id="XMLID_268_" opacity="0.62" fill="#281A18" d="M197.9,172.7c-2,4.3-3.9,8.7-5.6,12.9c-0.8-0.5-1.7-1-2.5-1.4
							c1.7-4.3,3.6-8.6,5.7-12.9C196.3,171.7,197.1,172.2,197.9,172.7z"/>
					</g>
					<g id="XMLID_264_">
						<linearGradient id="XMLID_112_" gradientUnits="userSpaceOnUse" x1="71.9834" y1="148.2344" x2="71.9834" y2="10.6851">
							<stop  offset="0" style="stop-color:#676767"/>
							<stop  offset="1" style="stop-color:#C3C2C2"/>
						</linearGradient>
						<path id="XMLID_266_" fill="url(#XMLID_112_)" d="M144,137.1c-4.6,3.7-9,7.5-13.4,11.2C64,104.9,18.5,56.4,0,10.7
							c16.2,3.5,32.4,7.1,48.8,10.6C65.5,67.4,103.2,112.1,144,137.1z"/>
						<path id="XMLID_265_" opacity="0.85" fill="#FFFFFF" d="M136.5,148.4c-0.8,0.7-1.7,1.4-2.5,2.2C65.9,106.6,19.5,57.2,0.5,10.8
							c2,0.5,4.1,0.9,6.1,1.4C25.4,57.5,70.6,105.6,136.5,148.4z"/>
					</g>
					<path id="XMLID_263_" fill="#281A18" d="M157.2,131.3c-9.6,14.8-17.6,29.4-24,43.5c-5-3-9.9-6.1-14.8-9.2
						c7.1-14.3,15.8-29,26-43.9C148.6,125,152.8,128.2,157.2,131.3z"/>
				</g>
			</g>
			<g id="XMLID_3562_">
				<g id="XMLID_245_">
					<g id="XMLID_250_">
						<path id="XMLID_260_" fill="#603A17" d="M7.8,184.7c0.3,0.7,0.6,1.5,0.9,2.2c1.1,2.9,5.4,3.3,9.5,1
							c21.4-12.2,41.6-24.8,60.5-37.7c3.6-2.5,5.1-6.9,3.2-10c-0.5-0.8-0.9-1.5-1.4-2.3c-1.9-3.1-6.3-3.5-9.8-1.1
							c-18.1,13-37.4,25.8-58,38.3C8.8,177.5,6.6,181.8,7.8,184.7z"/>
						<path id="XMLID_259_" fill="none" stroke="#281A18" stroke-width="5.0797" stroke-miterlimit="10" d="M14.4,174
							c6.3,14.3,24.3,17.7,41.4,7.9c17-9.8,24.1-29.9,14.5-44.9"/>
						<path id="XMLID_258_" opacity="0.62" fill="#281A18" d="M56.3,146.8c2.6,4.5,5,8.9,7.3,13.3c0.8-0.5,1.5-1,2.3-1.5
							c-2.3-4.4-4.8-8.9-7.4-13.4C57.8,145.8,57,146.3,56.3,146.8z"/>
						<path id="XMLID_257_" opacity="0.62" fill="#281A18" d="M50.8,150.6c2.5,4.5,4.9,8.9,7.1,13.3c0.8-0.5,1.5-1,2.3-1.5
							c-2.2-4.4-4.6-8.8-7.2-13.3C52.3,149.6,51.6,150.1,50.8,150.6z"/>
						<path id="XMLID_256_" opacity="0.62" fill="#281A18" d="M45.3,154.3c2.4,4.4,4.7,8.9,6.8,13.2c0.8-0.5,1.6-1,2.3-1.5
							c-2.2-4.4-4.5-8.8-6.9-13.3C46.8,153.3,46,153.8,45.3,154.3z"/>
						<path id="XMLID_255_" opacity="0.62" fill="#281A18" d="M39.6,158c2.3,4.4,4.5,8.8,6.6,13.2c0.8-0.5,1.6-1,2.4-1.5
							c-2.1-4.4-4.3-8.8-6.7-13.2C41.2,157,40.4,157.5,39.6,158z"/>
						<path id="XMLID_254_" opacity="0.62" fill="#281A18" d="M34,161.7c2.3,4.4,4.4,8.8,6.3,13.1c0.8-0.5,1.6-1,2.4-1.5
							c-2-4.3-4.1-8.7-6.4-13.1C35.5,160.7,34.7,161.2,34,161.7z"/>
						<path id="XMLID_253_" opacity="0.62" fill="#281A18" d="M28.2,165.4c2.2,4.4,4.2,8.7,6.1,13c0.8-0.5,1.6-1,2.4-1.5
							c-1.9-4.3-4-8.7-6.2-13.1C29.8,164.4,29,164.9,28.2,165.4z"/>
						<path id="XMLID_252_" opacity="0.62" fill="#281A18" d="M22.4,169.1c2.1,4.4,4,8.7,5.8,13c0.8-0.5,1.6-1,2.5-1.4
							c-1.8-4.3-3.8-8.6-5.9-13C23.9,168.1,23.2,168.6,22.4,169.1z"/>
						<path id="XMLID_251_" opacity="0.62" fill="#281A18" d="M16.5,172.7c2,4.3,3.9,8.7,5.6,12.9c0.8-0.5,1.7-1,2.5-1.4
							c-1.7-4.3-3.6-8.6-5.7-12.9C18.1,171.7,17.3,172.2,16.5,172.7z"/>
					</g>
					<g id="XMLID_247_">
						<linearGradient id="XMLID_113_" gradientUnits="userSpaceOnUse" x1="142.3756" y1="148.2344" x2="142.3756" y2="10.6851">
							<stop  offset="0" style="stop-color:#676767"/>
							<stop  offset="1" style="stop-color:#C3C2C2"/>
						</linearGradient>
						<path id="XMLID_249_" fill="url(#XMLID_113_)" d="M70.4,137.1c4.6,3.7,9,7.5,13.4,11.2c66.6-43.3,112.1-91.8,130.6-137.5
							c-16.2,3.5-32.4,7.1-48.8,10.6C148.9,67.4,111.2,112.1,70.4,137.1z"/>
						<path id="XMLID_248_" opacity="0.85" fill="#FFFFFF" d="M77.9,148.4c0.8,0.7,1.7,1.4,2.5,2.2c68.1-44,114.5-93.4,133.4-139.8
							c-2,0.5-4.1,0.9-6.1,1.4C188.9,57.5,143.7,105.6,77.9,148.4z"/>
					</g>
					<path id="XMLID_246_" fill="#281A18" d="M57.2,131.3c9.6,14.8,17.6,29.4,24,43.5c5-3,9.9-6.1,14.8-9.2
						c-7.1-14.3-15.8-29-26-43.9C65.8,125,61.5,128.2,57.2,131.3z"/>
				</g>
			</g>
		</g>
		<g id="XMLID_3534_">
			<polygon id="XMLID_3560_" fill="#FED800" points="40.4,5.5 43.8,25.6 60.9,29.6 43.8,33.7 40.4,53.8 36.9,33.7 19.9,29.6 
				36.9,25.6 			"/>
			<polygon id="XMLID_3555_" fill="#FED800" points="166.5,8.1 168.7,20.5 179.2,23 168.7,25.5 166.5,38 164.4,25.5 153.9,23 
				164.4,20.5 			"/>
		</g>
		<g id="XMLID_3184_">
			<linearGradient id="XMLID_114_" gradientUnits="userSpaceOnUse" x1="109.7042" y1="174.9021" x2="109.7042" y2="40.8754">
				<stop  offset="0" style="stop-color:#F2986B"/>
				<stop  offset="3.732866e-002" style="stop-color:#F29B6D"/>
				<stop  offset="0.4612" style="stop-color:#F8BB87"/>
				<stop  offset="0.7967" style="stop-color:#FDCF99"/>
				<stop  offset="1" style="stop-color:#FFD6A0"/>
			</linearGradient>
			<path id="XMLID_3533_" fill="url(#XMLID_114_)" d="M33.5,119c1-44.1,36-79.1,78.1-78.1c42.1,1,75.4,37.5,74.4,81.6
				c-1.3,55.1-41.3,53.6-80,51.8C68.5,172.5,32.2,172.3,33.5,119z"/>
			<g id="XMLID_3526_">
				<g id="XMLID_99_">
					<path id="XMLID_103_" fill="#F2986B" d="M148.1,61.8c0.4,0.3,0.8,0.5,1.1,0.8c0.7,0.5,1.9,0.2,2.4-0.6c0.5-0.9,0.2-1.8-0.6-2.4
						c-0.4-0.3-0.8-0.5-1.1-0.8c-0.7-0.5-1.9-0.2-2.4,0.6C147,60.3,147.3,61.2,148.1,61.8L148.1,61.8z"/>
				</g>
			</g>
			<g id="XMLID_3519_">
				<g id="XMLID_93_">
					<path id="XMLID_97_" fill="#F2986B" d="M156.7,69.4c0.1,0.1,0.2,0.2,0.2,0.2c1.5,1.6,4-0.8,2.4-2.4c-0.1-0.1-0.2-0.2-0.2-0.2
						C157.6,65.3,155.2,67.8,156.7,69.4c0.1,0.1,0.2,0.2,0.2,0.2c1.5,1.6,4-0.8,2.4-2.4c-0.1-0.1-0.2-0.2-0.2-0.2
						C157.6,65.3,155.2,67.8,156.7,69.4L156.7,69.4z"/>
				</g>
			</g>
			<g id="XMLID_3283_">
				<g id="XMLID_68_">
					<path id="XMLID_91_" fill="#F2986B" d="M149.4,69.6c0.2,0.3,0.5,0.5,0.7,0.8c0.6,0.7,1.8,0.7,2.4,0c0.6-0.7,0.7-1.7,0-2.4
						c-0.2-0.3-0.5-0.5-0.7-0.8c-0.6-0.7-1.8-0.7-2.4,0C148.8,67.9,148.8,68.9,149.4,69.6L149.4,69.6z"/>
				</g>
			</g>
			<g id="XMLID_3237_">
				<g id="XMLID_62_">
					<path id="XMLID_66_" fill="#F2986B" d="M158.4,77.9C158.5,77.9,158.5,77.9,158.4,77.9c-0.2-0.1-0.4-0.3-0.7-0.4c0,0,0,0,0,0
						c-0.1-0.3-0.3-0.5-0.4-0.8c0-0.2,0-0.5,0-0.7c0.1-0.3,0.3-0.5,0.4-0.8c0,0,0,0,0,0c0.4-0.2,0.8-0.3,1.2-0.5c0,0,0,0-0.1,0
						c-0.9,0-1.8,0.8-1.7,1.7c0,0.9,0.8,1.8,1.7,1.7c1,0,1.9-0.8,1.9-1.8c0-0.8-0.5-1.7-1.4-1.9c-0.9-0.1-1.9,0.2-2.1,1.2
						C157.1,76.6,157.5,77.8,158.4,77.9L158.4,77.9z"/>
				</g>
			</g>
			<g id="XMLID_3185_">
				<path id="XMLID_3236_" fill="#292929" d="M91.7,55.5c-0.1,2.7-2.3,4.9-5.1,4.8c-2.7-0.1-4.9-2.3-4.9-5L91.7,55.5z"/>
				<path id="XMLID_3235_" fill="#292929" d="M130.6,56.4c0,1.6-1.3,2.8-2.9,2.8c-1.6,0-2.8-1.3-2.8-2.9L130.6,56.4z"/>
				<g id="XMLID_3217_">
					<defs>
						<path id="XMLID_3218_" d="M95.1,74.3c0.2-7.6,6.5-13.6,14.1-13.4c7.6,0.2,13.6,6.5,13.4,14.1L109,69.5L95.1,74.3z"/>
					</defs>
					<use xlink:href="#XMLID_3218_"  overflow="visible" fill="#292826"/>
					<clipPath id="XMLID_115_">
						<use xlink:href="#XMLID_3218_"  overflow="visible"/>
					</clipPath>
					
						<rect id="XMLID_3220_" x="94.8" y="58.7" transform="matrix(0.9997 2.282300e-002 -2.282300e-002 0.9997 1.4631 -2.4744)" clip-path="url(#XMLID_115_)" fill="#FFFFFF" width="28.7" height="8.2"/>
					
						<ellipse id="XMLID_3219_" transform="matrix(0.9997 2.282300e-002 -2.282300e-002 0.9997 1.7127 -2.4659)" clip-path="url(#XMLID_115_)" fill="#F16462" cx="108.9" cy="73.8" rx="7.9" ry="5.3"/>
				</g>
				<path id="XMLID_3215_" fill="#292929" d="M102.2,78l6.7-4.6l6.5,4.9L102.2,78z"/>
				<g id="XMLID_3186_">
					<path id="XMLID_51_" fill="#292929" d="M125,72.7c0,0,0.3,0.5,0.6,1.3c0.1,0.4,0.3,0.9,0.3,1.4c0,0.5,0,1.1-0.2,1.8
						c-0.1,0.3-0.3,0.6-0.6,0.9c-0.3,0.3-0.7,0.3-1,0.4c-0.2,0-0.5,0-0.8,0c-0.3,0-0.5-0.1-0.7-0.1c-0.4-0.1-0.8-0.4-0.9-0.6
						c-0.2-0.2-0.2-0.4-0.2-0.4s0.1,0.1,0.3,0.2c0.2,0.1,0.5,0.1,0.9,0.1c0.2,0,0.4,0,0.6-0.1c0.2,0,0.4-0.1,0.7-0.2
						c0.2-0.1,0.3-0.1,0.4-0.2c0.1-0.1,0.2-0.3,0.3-0.4c0.1-0.2,0.1-0.4,0.2-0.6c0-0.2,0.1-0.5,0.1-0.7c0-0.5,0-0.9,0.1-1.3
						C124.9,73.2,125,72.7,125,72.7z"/>
				</g>
			</g>
		</g>
		<path id="XMLID_3182_" opacity="0.46" fill="#F2986B" d="M60.6,56.3c0,0-2,5.4,3.7,4.1c5.8-1.4,37.5-8.9,48-10
			c13.9-1.5,24,0.2,33.6,2.6c9.5,2.4,5.5-13.1,0-14.6s-67.1-1.5-67.1-1.5L60.6,56.3z"/>
		<g id="XMLID_3175_">
			<g id="XMLID_54_">
				<path id="XMLID_58_" fill="#212A31" d="M100,39.4c-11.3,13.1-26,23.3-43.9,23.7c-2.6,0.1-2.6,4.1,0,4
					c18.9-0.4,34.7-11,46.7-24.9C104.5,40.3,101.7,37.5,100,39.4L100,39.4z"/>
			</g>
		</g>
		<path id="XMLID_3174_" fill="#412312" d="M185.8,126c-2.9,51.5-42,50-79.9,48.3c-35.9-1.7-70.8-1.9-72.4-49.1
			c19-8.8,45.7-14.2,75.3-14.2C139.3,111,166.7,116.8,185.8,126z"/>
		<g id="XMLID_2800_">
			<g id="XMLID_3170_">
				<circle id="XMLID_3173_" fill="#6D451E" cx="49.9" cy="97.6" r="6.1"/>
				<circle id="XMLID_3172_" fill="#6D451E" cx="118.3" cy="102.1" r="6.1"/>
				<circle id="XMLID_3171_" fill="#6D451E" cx="178.8" cy="117.5" r="6.1"/>
			</g>
			<g id="XMLID_2820_">
				<g id="XMLID_2821_">
					<g id="XMLID_167_">
						<linearGradient id="XMLID_116_" gradientUnits="userSpaceOnUse" x1="29.5623" y1="110.5185" x2="69.3671" y2="110.5185">
							<stop  offset="0" style="stop-color:#676767"/>
							<stop  offset="1" style="stop-color:#C3C2C2"/>
						</linearGradient>
						<path id="XMLID_181_" fill="url(#XMLID_116_)" d="M29.6,83.8l23.6-4.2c7.1-1.3,15.8,1.3,16.2,16.4c0.5,18.2-9,19.3-15.5,20.2
							c-3.1,0.4-12.4,1-12.8,0.8l0.4,22.9l-10.8,1.9L29.6,83.8z M52.8,106.5c3.4-0.6,5.7-2.8,5.5-9.8c-0.2-6.8-3-7.7-5.8-7.1
							l-11.9,2.1l0.3,16.9L52.8,106.5z"/>
						<path id="XMLID_178_" fill="#AD8B66" d="M82.5,95.8c7.8,0,13.1,2.3,10.8,17.6c-2.3,14.6-7.7,15.8-15.7,15.8
							c-7.7,0-13.2-2.1-10.8-17.1C69.2,96.6,74.8,95.8,82.5,95.8z M78.3,123.3c5,0,7.2-1.7,8.6-10.6c1.6-10.3-0.4-11.1-5.2-11.1
							c-4.9,0-7.1,0.6-8.7,11.1C71.7,121.7,72.9,123.3,78.3,123.3z"/>
						<path id="XMLID_176_" fill="#AD8B66" d="M90.8,93.8l27.5-8.4l1,6.9l-10.3,3.2l4.6,32.2l-7.1,2.2l-4.6-32.2l-10,3.1L90.8,93.8z
							"/>
						<path id="XMLID_173_" fill="#AD8B66" d="M130.5,91.5h8.1l6.2,37.2h-7.3l-1.5-8.3H124l-4.1,8.3H112L130.5,91.5z M135.3,114.2
							l-2.1-13.5l-6.4,13.5H135.3z"/>
						<path id="XMLID_171_" fill="#AD8B66" d="M144.2,90.5l28.8-1l-0.9,6.9l-10.8,0.4l-4,32.2l-7.4,0.3l4-32.2l-10.5,0.4L144.2,90.5
							z"/>
						<path id="XMLID_168_" fill="#AD8B66" d="M176.2,105c7.7-2.6,13.5-2.8,14.8,8.6c1.2,10.9-3.8,13.6-11.7,16.2
							c-7.6,2.6-13.5,3-14.7-8.2C163.3,110.1,168.6,107.6,176.2,105z M178.6,125.6c4.9-1.7,6.7-3.6,6-10.3c-0.8-7.7-3-7.6-7.7-6
							c-4.8,1.6-6.8,2.8-5.9,10.6C171.7,126.7,173.2,127.4,178.6,125.6z"/>
					</g>
					<g id="XMLID_150_">
						<linearGradient id="XMLID_117_" gradientUnits="userSpaceOnUse" x1="110.353" y1="141.7482" x2="110.353" y2="79.2889">
							<stop  offset="0" style="stop-color:#603A17"/>
							<stop  offset="1" style="stop-color:#754D25"/>
						</linearGradient>
						<path id="XMLID_164_" fill="none" stroke="url(#XMLID_117_)" stroke-width="13.8755" stroke-linejoin="round" d="M29.6,83.8
							l23.6-4.2c7.1-1.3,15.8,1.3,16.2,16.4c0.5,18.2-9,19.3-15.5,20.2c-3.1,0.4-12.4,1-12.8,0.8l0.4,22.9l-10.8,1.9L29.6,83.8z
							 M52.8,106.5c3.4-0.6,5.7-2.8,5.5-9.8c-0.2-6.8-3-7.7-5.8-7.1l-11.9,2.1l0.3,16.9L52.8,106.5z"/>
						<linearGradient id="XMLID_118_" gradientUnits="userSpaceOnUse" x1="110.353" y1="141.7482" x2="110.353" y2="79.2889">
							<stop  offset="0" style="stop-color:#603A17"/>
							<stop  offset="1" style="stop-color:#754D25"/>
						</linearGradient>
						<path id="XMLID_161_" fill="none" stroke="url(#XMLID_118_)" stroke-width="13.8755" stroke-linejoin="round" d="M82.5,95.8
							c7.8,0,13.1,2.3,10.8,17.6c-2.3,14.6-7.7,15.8-15.7,15.8c-7.7,0-13.2-2.1-10.8-17.1C69.2,96.6,74.8,95.8,82.5,95.8z
							 M78.3,123.3c5,0,7.2-1.7,8.6-10.6c1.6-10.3-0.4-11.1-5.2-11.1c-4.9,0-7.1,0.6-8.7,11.1C71.7,121.7,72.9,123.3,78.3,123.3z"/>
						<linearGradient id="XMLID_119_" gradientUnits="userSpaceOnUse" x1="110.353" y1="141.7482" x2="110.353" y2="79.2889">
							<stop  offset="0" style="stop-color:#603A17"/>
							<stop  offset="1" style="stop-color:#754D25"/>
						</linearGradient>
						<path id="XMLID_159_" fill="none" stroke="url(#XMLID_119_)" stroke-width="13.8755" stroke-linejoin="round" d="M90.8,93.8
							l27.5-8.4l1,6.9l-10.3,3.2l4.6,32.2l-7.1,2.2l-4.6-32.2l-10,3.1L90.8,93.8z"/>
						<linearGradient id="XMLID_120_" gradientUnits="userSpaceOnUse" x1="110.353" y1="141.7482" x2="110.353" y2="79.2889">
							<stop  offset="0" style="stop-color:#603A17"/>
							<stop  offset="1" style="stop-color:#754D25"/>
						</linearGradient>
						<path id="XMLID_156_" fill="none" stroke="url(#XMLID_120_)" stroke-width="13.8755" stroke-linejoin="round" d="M130.5,91.5
							h8.1l6.2,37.2h-7.3l-1.5-8.3H124l-4.1,8.3H112L130.5,91.5z M135.3,114.2l-2.1-13.5l-6.4,13.5H135.3z"/>
						<linearGradient id="XMLID_121_" gradientUnits="userSpaceOnUse" x1="110.353" y1="141.7482" x2="110.353" y2="79.2889">
							<stop  offset="0" style="stop-color:#603A17"/>
							<stop  offset="1" style="stop-color:#754D25"/>
						</linearGradient>
						<path id="XMLID_154_" fill="none" stroke="url(#XMLID_121_)" stroke-width="13.8755" stroke-linejoin="round" d="M144.2,90.5
							l28.8-1l-0.9,6.9l-10.8,0.4l-4,32.2l-7.4,0.3l4-32.2l-10.5,0.4L144.2,90.5z"/>
						<linearGradient id="XMLID_122_" gradientUnits="userSpaceOnUse" x1="110.353" y1="141.7482" x2="110.353" y2="79.2889">
							<stop  offset="0" style="stop-color:#603A17"/>
							<stop  offset="1" style="stop-color:#754D25"/>
						</linearGradient>
						<path id="XMLID_151_" fill="none" stroke="url(#XMLID_122_)" stroke-width="13.8755" stroke-linejoin="round" d="M176.2,105
							c7.7-2.6,13.5-2.8,14.8,8.6c1.2,10.9-3.8,13.6-11.7,16.2c-7.6,2.6-13.5,3-14.7-8.2C163.3,110.1,168.6,107.6,176.2,105z
							 M178.6,125.6c4.9-1.7,6.7-3.6,6-10.3c-0.8-7.7-3-7.6-7.7-6c-4.8,1.6-6.8,2.8-5.9,10.6C171.7,126.7,173.2,127.4,178.6,125.6z"
							/>
					</g>
					<g id="XMLID_133_">
						<linearGradient id="XMLID_123_" gradientUnits="userSpaceOnUse" x1="110.353" y1="141.7482" x2="110.353" y2="79.2889">
							<stop  offset="0" style="stop-color:#FBB03C"/>
							<stop  offset="1" style="stop-color:#FBC93C"/>
						</linearGradient>
						<path id="XMLID_147_" fill="url(#XMLID_123_)" d="M29.6,83.8l23.6-4.2c7.1-1.3,15.8,1.3,16.2,16.4c0.5,18.2-9,19.3-15.5,20.2
							c-3.1,0.4-12.4,1-12.8,0.8l0.4,22.9l-10.8,1.9L29.6,83.8z M52.8,106.5c3.4-0.6,5.7-2.8,5.5-9.8c-0.2-6.8-3-7.7-5.8-7.1
							l-11.9,2.1l0.3,16.9L52.8,106.5z"/>
						<linearGradient id="XMLID_124_" gradientUnits="userSpaceOnUse" x1="110.353" y1="141.7482" x2="110.353" y2="79.2889">
							<stop  offset="0" style="stop-color:#FBB03C"/>
							<stop  offset="1" style="stop-color:#FBC93C"/>
						</linearGradient>
						<path id="XMLID_144_" fill="url(#XMLID_124_)" d="M82.5,95.8c7.8,0,13.1,2.3,10.8,17.6c-2.3,14.6-7.7,15.8-15.7,15.8
							c-7.7,0-13.2-2.1-10.8-17.1C69.2,96.6,74.8,95.8,82.5,95.8z M78.3,123.3c5,0,7.2-1.7,8.6-10.6c1.6-10.3-0.4-11.1-5.2-11.1
							c-4.9,0-7.1,0.6-8.7,11.1C71.7,121.7,72.9,123.3,78.3,123.3z"/>
						<linearGradient id="XMLID_125_" gradientUnits="userSpaceOnUse" x1="110.353" y1="141.7482" x2="110.353" y2="79.2889">
							<stop  offset="0" style="stop-color:#FBB03C"/>
							<stop  offset="1" style="stop-color:#FBC93C"/>
						</linearGradient>
						<path id="XMLID_142_" fill="url(#XMLID_125_)" d="M90.8,93.8l27.5-8.4l1,6.9l-10.3,3.2l4.6,32.2l-7.1,2.2l-4.6-32.2l-10,3.1
							L90.8,93.8z"/>
						<linearGradient id="XMLID_126_" gradientUnits="userSpaceOnUse" x1="110.353" y1="141.7482" x2="110.353" y2="79.2889">
							<stop  offset="0" style="stop-color:#FBB03C"/>
							<stop  offset="1" style="stop-color:#FBC93C"/>
						</linearGradient>
						<path id="XMLID_139_" fill="url(#XMLID_126_)" d="M130.5,91.5h8.1l6.2,37.2h-7.3l-1.5-8.3H124l-4.1,8.3H112L130.5,91.5z
							 M135.3,114.2l-2.1-13.5l-6.4,13.5H135.3z"/>
						<linearGradient id="XMLID_127_" gradientUnits="userSpaceOnUse" x1="110.353" y1="141.7482" x2="110.353" y2="79.2889">
							<stop  offset="0" style="stop-color:#FBB03C"/>
							<stop  offset="1" style="stop-color:#FBC93C"/>
						</linearGradient>
						<path id="XMLID_137_" fill="url(#XMLID_127_)" d="M144.2,90.5l28.8-1l-0.9,6.9l-10.8,0.4l-4,32.2l-7.4,0.3l4-32.2l-10.5,0.4
							L144.2,90.5z"/>
						<linearGradient id="XMLID_128_" gradientUnits="userSpaceOnUse" x1="110.353" y1="141.7482" x2="110.353" y2="79.2889">
							<stop  offset="0" style="stop-color:#FBB03C"/>
							<stop  offset="1" style="stop-color:#FBC93C"/>
						</linearGradient>
						<path id="XMLID_134_" fill="url(#XMLID_128_)" d="M176.2,105c7.7-2.6,13.5-2.8,14.8,8.6c1.2,10.9-3.8,13.6-11.7,16.2
							c-7.6,2.6-13.5,3-14.7-8.2C163.3,110.1,168.6,107.6,176.2,105z M178.6,125.6c4.9-1.7,6.7-3.6,6-10.3c-0.8-7.7-3-7.6-7.7-6
							c-4.8,1.6-6.8,2.8-5.9,10.6C171.7,126.7,173.2,127.4,178.6,125.6z"/>
					</g>
				</g>
			</g>
			<g id="XMLID_2801_">
				<g id="XMLID_2817_">
					<path id="XMLID_49_" fill="#6D451C" d="M60.5,118.1c7.2-1.7,14.4-3.4,21.6-5.1c-4.5,2.1-9,4.2-13.5,6.2"/>
				</g>
				<g id="XMLID_2814_">
					<path id="XMLID_47_" fill="#6D451C" d="M113.4,101.3c-5.4,4.5-10.9,9-16.3,13.5c4.8-2,9.6-4.3,14.3-6.7"/>
				</g>
				<g id="XMLID_2811_">
					<path id="XMLID_45_" fill="#6D451C" d="M116.7,117.4c3.8-0.9,7.6-1.8,11.5-2.7c-4.3,2.3-8.8,4.2-13.4,5.7"/>
				</g>
				<g id="XMLID_2808_">
					<path id="XMLID_43_" fill="#6D451C" d="M172.9,85.1c-6.7,4.5-13.2,9.2-19.6,14.2c6.7-2,13.3-4.4,19.8-7.1"/>
				</g>
				<g id="XMLID_2805_">
					<path id="XMLID_41_" fill="#6D451C" d="M28.5,116.9c6-1.9,11.9-4.2,17.7-6.8c-5.8,3.5-11.4,7.4-16.6,11.7"/>
				</g>
				<g id="XMLID_2802_">
					<path id="XMLID_39_" fill="#6D451C" d="M193.1,121.7c-3-0.3-6-0.5-9.1-0.8c0.7,2.7,2,5.4,3.6,7.7"/>
				</g>
			</g>
		</g>
		<g id="XMLID_2665_">
			<g id="XMLID_77_">
				<g id="XMLID_296_">
					<path id="XMLID_309_" fill="#AD8B66" d="M50.4,143.7c1.7-0.3,4-0.5,7-0.5c3.6,0,6.2,0.8,7.9,2.3c1.5,1.3,2.5,3.4,2.5,5.9
						c0,2.5-0.7,4.5-2.2,6c-1.9,2-5,3.1-8.6,3.1c-1.1,0-2.1,0-2.9-0.3v11.2h-3.6V143.7z M54,157.2c0.8,0.2,1.8,0.3,3,0.3
						c4.4,0,7-2.1,7-6c0-3.7-2.6-5.5-6.6-5.5c-1.6,0-2.8,0.1-3.4,0.3V157.2z"/>
					<path id="XMLID_307_" fill="#AD8B66" d="M76.1,143.4v28.1h-3.6v-28.1H76.1z"/>
					<path id="XMLID_304_" fill="#AD8B66" d="M82.5,143.7c1.8-0.4,4.5-0.6,7-0.6c3.9,0,6.4,0.7,8.1,2.3c1.4,1.3,2.2,3.2,2.2,5.3
						c0,3.7-2.3,6.2-5.3,7.2v0.1c2.2,0.8,3.5,2.8,4.1,5.7c0.9,3.9,1.6,6.6,2.2,7.7H97c-0.5-0.8-1.1-3.2-1.9-6.7
						c-0.8-3.9-2.3-5.3-5.6-5.5h-3.4v12.2h-3.6V143.7z M86.1,156.5h3.7c3.9,0,6.3-2.1,6.3-5.3c0-3.6-2.6-5.2-6.5-5.2
						c-1.7,0-3,0.2-3.6,0.3V156.5z"/>
					<path id="XMLID_301_" fill="#AD8B66" d="M109.6,162.6l-2.9,8.8H103l9.5-28.1h4.4l9.6,28.1h-3.9l-3-8.8H109.6z M118.8,159.8
						l-2.7-8.1c-0.6-1.8-1-3.5-1.5-5.1h-0.1c-0.4,1.7-0.9,3.4-1.4,5.1l-2.7,8.1H118.8z"/>
					<path id="XMLID_299_" fill="#AD8B66" d="M132.7,146.4h-8.5v-3.1H145v3.1h-8.6v25h-3.7V146.4z"/>
					<path id="XMLID_297_" fill="#AD8B66" d="M162.6,158.3h-10.9v10.1h12.2v3h-15.8v-28.1h15.2v3h-11.5v8.9h10.9V158.3z"/>
				</g>
				<g id="XMLID_280_">
					<path id="XMLID_293_" fill="none" stroke="#3D332A" stroke-width="12.7192" stroke-linejoin="round" d="M50.4,143.7
						c1.7-0.3,4-0.5,7-0.5c3.6,0,6.2,0.8,7.9,2.3c1.5,1.3,2.5,3.4,2.5,5.9c0,2.5-0.7,4.5-2.2,6c-1.9,2-5,3.1-8.6,3.1
						c-1.1,0-2.1,0-2.9-0.3v11.2h-3.6V143.7z M54,157.2c0.8,0.2,1.8,0.3,3,0.3c4.4,0,7-2.1,7-6c0-3.7-2.6-5.5-6.6-5.5
						c-1.6,0-2.8,0.1-3.4,0.3V157.2z"/>
					<path id="XMLID_291_" fill="none" stroke="#3D332A" stroke-width="12.7192" stroke-linejoin="round" d="M76.1,143.4v28.1h-3.6
						v-28.1H76.1z"/>
					<path id="XMLID_288_" fill="none" stroke="#3D332A" stroke-width="12.7192" stroke-linejoin="round" d="M82.5,143.7
						c1.8-0.4,4.5-0.6,7-0.6c3.9,0,6.4,0.7,8.1,2.3c1.4,1.3,2.2,3.2,2.2,5.3c0,3.7-2.3,6.2-5.3,7.2v0.1c2.2,0.8,3.5,2.8,4.1,5.7
						c0.9,3.9,1.6,6.6,2.2,7.7H97c-0.5-0.8-1.1-3.2-1.9-6.7c-0.8-3.9-2.3-5.3-5.6-5.5h-3.4v12.2h-3.6V143.7z M86.1,156.5h3.7
						c3.9,0,6.3-2.1,6.3-5.3c0-3.6-2.6-5.2-6.5-5.2c-1.7,0-3,0.2-3.6,0.3V156.5z"/>
					<path id="XMLID_285_" fill="none" stroke="#3D332A" stroke-width="12.7192" stroke-linejoin="round" d="M109.6,162.6l-2.9,8.8
						H103l9.5-28.1h4.4l9.6,28.1h-3.9l-3-8.8H109.6z M118.8,159.8l-2.7-8.1c-0.6-1.8-1-3.5-1.5-5.1h-0.1c-0.4,1.7-0.9,3.4-1.4,5.1
						l-2.7,8.1H118.8z"/>
					<path id="XMLID_283_" fill="none" stroke="#3D332A" stroke-width="12.7192" stroke-linejoin="round" d="M132.7,146.4h-8.5v-3.1
						H145v3.1h-8.6v25h-3.7V146.4z"/>
					<path id="XMLID_281_" fill="none" stroke="#3D332A" stroke-width="12.7192" stroke-linejoin="round" d="M162.6,158.3h-10.9
						v10.1h12.2v3h-15.8v-28.1h15.2v3h-11.5v8.9h10.9V158.3z"/>
				</g>
				<g id="XMLID_232_">
					<linearGradient id="XMLID_129_" gradientUnits="userSpaceOnUse" x1="107.1152" y1="171.4327" x2="107.1152" y2="143.1475">
						<stop  offset="0" style="stop-color:#A67D52"/>
						<stop  offset="1" style="stop-color:#C59C6D"/>
					</linearGradient>
					<path id="XMLID_261_" fill="url(#XMLID_129_)" d="M50.4,143.7c1.7-0.3,4-0.5,7-0.5c3.6,0,6.2,0.8,7.9,2.3
						c1.5,1.3,2.5,3.4,2.5,5.9c0,2.5-0.7,4.5-2.2,6c-1.9,2-5,3.1-8.6,3.1c-1.1,0-2.1,0-2.9-0.3v11.2h-3.6V143.7z M54,157.2
						c0.8,0.2,1.8,0.3,3,0.3c4.4,0,7-2.1,7-6c0-3.7-2.6-5.5-6.6-5.5c-1.6,0-2.8,0.1-3.4,0.3V157.2z"/>
					<linearGradient id="XMLID_130_" gradientUnits="userSpaceOnUse" x1="107.1152" y1="171.4327" x2="107.1152" y2="143.1475">
						<stop  offset="0" style="stop-color:#A67D52"/>
						<stop  offset="1" style="stop-color:#C59C6D"/>
					</linearGradient>
					<path id="XMLID_243_" fill="url(#XMLID_130_)" d="M76.1,143.4v28.1h-3.6v-28.1H76.1z"/>
					<linearGradient id="XMLID_131_" gradientUnits="userSpaceOnUse" x1="107.1152" y1="171.4327" x2="107.1152" y2="143.1475">
						<stop  offset="0" style="stop-color:#A67D52"/>
						<stop  offset="1" style="stop-color:#C59C6D"/>
					</linearGradient>
					<path id="XMLID_240_" fill="url(#XMLID_131_)" d="M82.5,143.7c1.8-0.4,4.5-0.6,7-0.6c3.9,0,6.4,0.7,8.1,2.3
						c1.4,1.3,2.2,3.2,2.2,5.3c0,3.7-2.3,6.2-5.3,7.2v0.1c2.2,0.8,3.5,2.8,4.1,5.7c0.9,3.9,1.6,6.6,2.2,7.7H97
						c-0.5-0.8-1.1-3.2-1.9-6.7c-0.8-3.9-2.3-5.3-5.6-5.5h-3.4v12.2h-3.6V143.7z M86.1,156.5h3.7c3.9,0,6.3-2.1,6.3-5.3
						c0-3.6-2.6-5.2-6.5-5.2c-1.7,0-3,0.2-3.6,0.3V156.5z"/>
					<linearGradient id="XMLID_184_" gradientUnits="userSpaceOnUse" x1="107.1152" y1="171.4327" x2="107.1152" y2="143.1475">
						<stop  offset="0" style="stop-color:#A67D52"/>
						<stop  offset="1" style="stop-color:#C59C6D"/>
					</linearGradient>
					<path id="XMLID_237_" fill="url(#XMLID_184_)" d="M109.6,162.6l-2.9,8.8H103l9.5-28.1h4.4l9.6,28.1h-3.9l-3-8.8H109.6z
						 M118.8,159.8l-2.7-8.1c-0.6-1.8-1-3.5-1.5-5.1h-0.1c-0.4,1.7-0.9,3.4-1.4,5.1l-2.7,8.1H118.8z"/>
					<linearGradient id="XMLID_185_" gradientUnits="userSpaceOnUse" x1="107.1152" y1="171.4327" x2="107.1152" y2="143.1475">
						<stop  offset="0" style="stop-color:#A67D52"/>
						<stop  offset="1" style="stop-color:#C59C6D"/>
					</linearGradient>
					<path id="XMLID_235_" fill="url(#XMLID_185_)" d="M132.7,146.4h-8.5v-3.1H145v3.1h-8.6v25h-3.7V146.4z"/>
					<linearGradient id="XMLID_186_" gradientUnits="userSpaceOnUse" x1="107.1152" y1="171.4327" x2="107.1152" y2="143.1475">
						<stop  offset="0" style="stop-color:#A67D52"/>
						<stop  offset="1" style="stop-color:#C59C6D"/>
					</linearGradient>
					<path id="XMLID_233_" fill="url(#XMLID_186_)" d="M162.6,158.3h-10.9v10.1h12.2v3h-15.8v-28.1h15.2v3h-11.5v8.9h10.9V158.3z"/>
				</g>
			</g>
			<g id="XMLID_2796_">
				<path id="XMLID_37_" fill="#3D332A" d="M82.7,138.5c-0.6,3.2-1.2,6.5-1.9,9.7c2-2.6,3.5-5.6,4.8-8.6"/>
			</g>
			<g id="XMLID_2793_">
				<path id="XMLID_35_" fill="#3D332A" d="M110.2,142.2c0,0-0.1,0.1-0.1,0.1c-1.9,1.4-3.8,2.7-5.7,4.1c3.3-0.2,6.5-0.4,9.8-0.6"/>
			</g>
			<g id="XMLID_2790_">
				<path id="XMLID_28_" fill="#3D332A" d="M84.3,161.1c2.5-1.3,5.1-2.3,7.8-2.9c-2.4,1.5-4.7,3.1-6.9,4.8"/>
			</g>
			<g id="XMLID_2675_">
				<g id="XMLID_30_">
					<path id="XMLID_34_" fill="#3D332A" d="M112.8,158.9c7-0.7,13.9-1.4,20.9-2.1c-0.2-1.2-0.3-2.4-0.5-3.6
						c-7.3,1.4-14.6,3-21.8,4.9c-2.3,0.6-1.3,4.1,1,3.5c7.2-1.8,14.5-3.5,21.8-4.9c2-0.4,1.6-3.8-0.5-3.6c-7,0.7-13.9,1.4-20.9,2.1
						C110.5,155.5,110.5,159.2,112.8,158.9L112.8,158.9z"/>
				</g>
			</g>
			<g id="XMLID_2672_">
				<path id="XMLID_25_" fill="#3D332A" d="M156.4,148.7c-5.2,1.4-10.3,3.1-15.3,5.1c6.1-1.1,12.1-2.1,18.2-3.2"/>
			</g>
			<g id="XMLID_2669_">
				<path id="XMLID_23_" fill="#3D332A" d="M156.1,158.6c6.2-3.5,12.4-7.1,18.6-10.6c-6.4,5-12.6,10.2-18.7,15.6"/>
			</g>
			<g id="XMLID_2666_">
				<path id="XMLID_11_" fill="#3D332A" d="M49.8,157.1c-0.2,0.1-0.3,0.3-0.5,0.4c2.6-2.5,5.1-5.2,7.4-8.1c-2.6,6-5.2,12.1-7.7,18.1
					"/>
			</g>
		</g>
		<g id="XMLID_2160_">
			<path id="XMLID_2664_" fill="#212A31" d="M53.6,61.2c0,0,76.3-26.1,101.8-6s8.1-12.5,8.1-12.5S128.1-7.4,96.1,0.9
				S50.2,55.5,50.2,55.5C47.8,59,47.4,61.6,53.6,61.2z"/>
			<g id="XMLID_2168_">
				<g id="XMLID_2387_">
					<g id="XMLID_18_">
						<path id="XMLID_22_" fill="#FFFFFF" d="M99.3,8.1c-2.1,4-4.8,7.6-8.1,10.6c-0.9,0.8,0.4,2.1,1.3,1.3c3.5-3.1,6.2-6.9,8.4-11
							C101.4,8,99.8,7.1,99.3,8.1L99.3,8.1z"/>
					</g>
				</g>
				<g id="XMLID_2176_">
					<g id="XMLID_12_">
						<path id="XMLID_16_" fill="#FFFFFF" d="M91.3,7.7c2.3,4.5,5.5,8.4,9.9,10.9c1,0.6,2-1,0.9-1.6c-4.2-2.3-7.1-6-9.3-10.2
							C92.4,5.7,90.8,6.6,91.3,7.7L91.3,7.7z"/>
					</g>
				</g>
			</g>
			<path id="XMLID_2167_" fill="#212A31" d="M165.4,39.9c0,0-4.9,2.6-2.8,6.4c2.1,3.8,6.5,7.1,7.3,6.5c0.8-0.7,3.7-11.2,2-13.6
				S165.4,39.9,165.4,39.9z"/>
			<path id="XMLID_2164_" fill="#212A31" d="M168.6,43c0,0,5.3-29.1,10.5-26.6c5.3,2.5,14.5,19.2,15.1,19.2c0.6,0-20.6,3.6-20.6,3.6
				L168.6,43z"/>
			<path id="XMLID_2163_" fill="#212A31" d="M168.6,43c0,0,20.9-5.1,23.2,2s2,18.2,2,18.2l-24.5-13.8L168.6,43z"/>
		</g>
	</g>
	<ellipse id="XMLID_2156_" fill="#FFFFFF" cx="200.4" cy="79" rx="27.9" ry="21.6"/>
	<g id="XMLID_70_">
		<path id="XMLID_71_" fill="#F79421" d="M181.5,89.6l2.1-14.6c0.1-0.7,0.2-1.3,0.4-2l-4.8,1.4l-0.1-2.5l5.2-2h3.6l-2.8,19.8H181.5z
			"/>
		<path id="XMLID_73_" fill="#4EBA6E" d="M204.4,74c-0.3,2.3-1.2,4-4.1,6.7l-5.9,5.6c0.9-0.1,2.1-0.2,3-0.2h6.1l-0.5,3.4h-13.5
			l0.3-2.2c0.1-0.6,0.2-1.1,0.6-1.5l6-5.7c2.9-2.6,4.3-4.4,4.5-6c0.2-1.4-0.8-1.5-2.6-1.5c-2,0-3.4,0.1-5.9,0.3v-2.8
			c2.8-0.6,4.6-0.7,6.3-0.7C202.2,69.5,204.8,70.3,204.4,74z"/>
		<path id="XMLID_75_" fill="#B52A2A" d="M220.1,74.2c-0.2,2.1-1.1,4.8-3.5,5l0,0.1c2.3,0.4,3.2,2,2.8,4.9c-0.5,3.2-2.4,5.7-7.8,5.8
			c-1.7,0.1-3.7-0.1-5.9-0.5l0.4-2.8c2.1,0.1,3.6,0.3,5.3,0.2c3.1-0.2,4.2-1.5,4.5-3.4c0.3-1.7-0.3-2.9-2.8-2.9l-3.8-0.1l0.3-2.6
			h3.6c2.7,0,3.3-1.4,3.5-3.1c0.2-1.8-0.2-2.3-3.2-2.3c-1.4,0-3.6,0.1-5,0.2l0-2.7c2.2-0.3,4.3-0.5,5.8-0.5
			C218.8,69.4,220.4,71,220.1,74.2z"/>
	</g>
</g>
</svg>
